<svg width="456" height="340" viewBox="0 0 456 340" fill="none" xmlns="http://www.w3.org/2000/svg">
<path d="M435.33 328.67L20.67 339.33V312.22H435.33V328.67Z" fill="#F5F5F5"/>
<path d="M244.33 281.83C244.081 281.831 243.841 281.74 243.656 281.573C243.471 281.407 243.355 281.178 243.33 280.93L243.21 279.74C241.68 264.51 239.38 241.51 219.72 220.01C219.631 219.913 219.562 219.798 219.517 219.674C219.472 219.55 219.452 219.417 219.459 219.285C219.465 219.153 219.498 219.024 219.555 218.905C219.612 218.785 219.692 218.678 219.79 218.59C219.986 218.413 220.245 218.321 220.509 218.334C220.774 218.347 221.022 218.464 221.2 218.66C241.3 240.66 243.74 264.99 245.2 279.54L245.32 280.73C245.334 280.861 245.321 280.994 245.284 281.121C245.246 281.248 245.183 281.365 245.099 281.468C245.016 281.57 244.913 281.655 244.796 281.717C244.679 281.779 244.552 281.818 244.42 281.83H244.33Z" fill="#4B46EC"/>
<path d="M242.11 260.6C234.74 263.71 224.57 263.49 224.11 260.24C223.65 256.99 229.11 260.06 231.77 257.29C234.43 254.52 223.59 257.12 220.5 256.17C217.41 255.22 218.15 252.73 225.24 252.71C232.33 252.69 226.16 247.95 219.62 250.5C212.62 253.21 208.62 249.86 214.97 247.82C221.32 245.78 223.3 247.05 223.6 244.74C224.13 240.68 208.43 248.8 205.75 244.9C203.07 241 213.34 243.24 216.53 239.04C219.72 234.84 205.53 241.62 203.38 238.84C201.23 236.06 207.89 237.07 212.25 234.48C216.61 231.89 201.84 235.07 201.98 230.76C202.08 227.66 208.27 231.87 212.18 228.54C216.09 225.21 199.65 227.96 200.53 225.12C201.41 222.28 208.24 225.6 211.02 222.57C213.8 219.54 203.95 221.02 204.17 217.83C204.39 214.64 209.51 218.83 211.77 217.26C214.03 215.69 205.02 213.61 205.85 211.26C206.68 208.91 209.63 208.51 212.91 212.61C215.58 215.92 215.52 210.83 215.18 206.74C214.76 201.61 219.04 202.74 219.29 205.79C219.73 210.87 222.48 214.28 222.81 211.09C223.33 206.04 224.9 203.03 227.42 204.09C229.94 205.15 225.1 211.55 227.97 211.21C230.84 210.87 230.89 204.75 233.69 206.83C236.49 208.91 228.44 214.06 232.88 214.41C237.32 214.76 238.23 209.2 241.2 210.62C244.17 212.04 233.53 218.39 237.04 219.27C242.35 220.62 244.28 211.7 246.92 213.78C250.6 216.68 236.85 223.78 242.16 224C247.47 224.22 248.25 217.18 250.57 221.28C253.2 225.95 237.05 228.37 242.75 229.28C248.45 230.19 253.69 222.2 255.07 226.57C256.45 230.94 237.85 234.42 241.59 236.9C243.71 238.31 244.92 235.63 251.12 234.38C257.63 233.07 257.51 237.95 250.12 239.15C243.18 240.28 243.18 248.6 248.12 244.21C253.06 239.82 255.62 241.04 254.28 243.63C252.94 246.22 243.23 251.26 247.4 251.48C251.57 251.7 252.8 246.15 255.16 248.71C257.52 251.27 249.49 257.49 242.11 260.6Z" fill="#4B46EC"/>
<path d="M271.65 239.56C271.12 237.84 266.98 239.85 265.3 238.02C263.62 236.19 269.57 237.08 269.45 235.15C269.33 233.22 266.22 235.76 264.85 234.81C263.48 233.86 268.93 232.6 268.43 231.19C267.93 229.78 266.15 229.53 264.16 232C262.55 234 262.59 230.93 262.79 228.46C263.04 225.36 260.46 226.06 260.3 227.88C260.04 230.96 258.38 233.01 258.18 231.09C257.86 228.09 256.91 226.22 255.39 226.88C253.87 227.54 256.79 231.39 255.06 231.18C253.33 230.97 253.29 227.28 251.6 228.54C249.91 229.8 254.77 232.91 252.09 233.12C249.41 233.33 248.86 229.97 247.09 230.83C245.32 231.69 251.73 235.52 249.6 236.06C246.4 236.87 245.23 231.48 243.6 232.74C241.38 234.49 249.69 238.8 246.48 238.92C243.27 239.04 242.8 234.79 241.4 237.27C239.81 240.09 249.57 241.56 246.13 242.1C242.69 242.64 239.51 237.82 238.68 240.47C237.85 243.12 249.09 245.21 246.83 246.71C245.55 247.56 244.83 245.94 241.07 245.18C237.13 244.39 237.2 247.34 241.67 248.07C245.87 248.75 245.86 253.78 242.91 251.12C239.96 248.46 238.37 249.21 239.19 250.78C240.01 252.35 245.86 255.38 243.35 255.52C240.84 255.66 240.08 252.3 238.66 253.84C237.24 255.38 241.89 259.02 246.29 260.92C245.51 264.728 244.952 268.577 244.62 272.45L244.55 273.18C244.542 273.259 244.549 273.339 244.572 273.415C244.595 273.491 244.632 273.561 244.682 273.623C244.733 273.684 244.794 273.735 244.864 273.772C244.934 273.809 245.011 273.832 245.09 273.84H245.15C245.299 273.841 245.443 273.786 245.554 273.686C245.665 273.586 245.735 273.448 245.75 273.3L245.82 272.57C246.144 268.807 246.675 265.065 247.41 261.36C251.75 262.86 257.12 262.63 257.41 260.79C257.7 258.95 254.41 260.68 252.78 259.01C251.15 257.34 257.73 258.91 259.59 258.33C261.45 257.75 261.01 256.25 256.73 256.24C252.45 256.23 256.17 253.36 260.13 254.9C264.33 256.54 266.79 254.52 262.93 253.28C259.07 252.04 257.93 252.82 257.72 251.42C257.4 248.97 266.89 253.87 268.51 251.52C270.13 249.17 263.92 250.52 261.99 247.98C260.06 245.44 268.64 249.54 269.94 247.86C271.24 246.18 267.21 246.79 264.58 245.22C261.95 243.65 270.87 245.58 270.79 242.97C270.73 241.1 266.99 243.64 264.62 241.63C262.25 239.62 272.18 241.28 271.65 239.56Z" fill="#4B46EC"/>
<path opacity="0.4" d="M271.65 239.56C271.12 237.84 266.98 239.85 265.3 238.02C263.62 236.19 269.57 237.08 269.45 235.15C269.33 233.22 266.22 235.76 264.85 234.81C263.48 233.86 268.93 232.6 268.43 231.19C267.93 229.78 266.15 229.53 264.16 232C262.55 234 262.59 230.93 262.79 228.46C263.04 225.36 260.46 226.06 260.3 227.88C260.04 230.96 258.38 233.01 258.18 231.09C257.86 228.09 256.91 226.22 255.39 226.88C253.87 227.54 256.79 231.39 255.06 231.18C253.33 230.97 253.29 227.28 251.6 228.54C249.91 229.8 254.77 232.91 252.09 233.12C249.41 233.33 248.86 229.97 247.09 230.83C245.32 231.69 251.73 235.52 249.6 236.06C246.4 236.87 245.23 231.48 243.6 232.74C241.38 234.49 249.69 238.8 246.48 238.92C243.27 239.04 242.8 234.79 241.4 237.27C239.81 240.09 249.57 241.56 246.13 242.1C242.69 242.64 239.51 237.82 238.68 240.47C237.85 243.12 249.09 245.21 246.83 246.71C245.55 247.56 244.83 245.94 241.07 245.18C237.13 244.39 237.2 247.34 241.67 248.07C245.87 248.75 245.86 253.78 242.91 251.12C239.96 248.46 238.37 249.21 239.19 250.78C240.01 252.35 245.86 255.38 243.35 255.52C240.84 255.66 240.08 252.3 238.66 253.84C237.24 255.38 241.89 259.02 246.29 260.92C245.51 264.728 244.952 268.577 244.62 272.45L244.55 273.18C244.542 273.259 244.549 273.339 244.572 273.415C244.595 273.491 244.632 273.561 244.682 273.623C244.733 273.684 244.794 273.735 244.864 273.772C244.934 273.809 245.011 273.832 245.09 273.84H245.15C245.299 273.841 245.443 273.786 245.554 273.686C245.665 273.586 245.735 273.448 245.75 273.3L245.82 272.57C246.144 268.807 246.675 265.065 247.41 261.36C251.75 262.86 257.12 262.63 257.41 260.79C257.7 258.95 254.41 260.68 252.78 259.01C251.15 257.34 257.73 258.91 259.59 258.33C261.45 257.75 261.01 256.25 256.73 256.24C252.45 256.23 256.17 253.36 260.13 254.9C264.33 256.54 266.79 254.52 262.93 253.28C259.07 252.04 257.93 252.82 257.72 251.42C257.4 248.97 266.89 253.87 268.51 251.52C270.13 249.17 263.92 250.52 261.99 247.98C260.06 245.44 268.64 249.54 269.94 247.86C271.24 246.18 267.21 246.79 264.58 245.22C261.95 243.65 270.87 245.58 270.79 242.97C270.73 241.1 266.99 243.64 264.62 241.63C262.25 239.62 272.18 241.28 271.65 239.56Z" fill="white"/>
<path d="M260.43 267.8H226.21L232.45 307.24H254.19L260.43 267.8Z" fill="#263238"/>
<path d="M350.18 307.23H352.82L347.93 220.63H345.28L350.18 307.23Z" fill="#4B46EC"/>
<path opacity="0.6" d="M350.18 307.23H352.82L347.93 220.63H345.28L350.18 307.23Z" fill="white"/>
<path d="M323.08 307.23H320.44L325.33 220.63H327.98L323.08 307.23Z" fill="#4B46EC"/>
<path opacity="0.6" d="M323.08 307.23H320.44L325.33 220.63H327.98L323.08 307.23Z" fill="white"/>
<path d="M390.76 307.23H393.4L388.5 220.63H385.86L390.76 307.23Z" fill="#4B46EC"/>
<path opacity="0.6" d="M390.76 307.23H393.4L388.5 220.63H385.86L390.76 307.23Z" fill="white"/>
<path d="M363.66 307.23H361.01L365.91 220.63H368.56L363.66 307.23Z" fill="#4B46EC"/>
<path opacity="0.6" d="M363.66 307.23H361.01L365.91 220.63H368.56L363.66 307.23Z" fill="white"/>
<path d="M331 208C331 208 337.85 143.82 344.67 131.35C351.49 118.88 425 115.25 420 136.69C415 158.13 398.26 220.63 391.52 220.63H308.3C308.3 202.3 331 208 331 208Z" fill="#4B46EC"/>
<path opacity="0.4" d="M331 208C331 208 337.85 143.82 344.67 131.35C351.49 118.88 425 115.25 420 136.69C415 158.13 398.26 220.63 391.52 220.63H308.3C308.3 202.3 331 208 331 208Z" fill="black"/>
<path d="M307.14 298.41L298.91 298.71L297.6 278.39L305.83 278.09L307.14 298.41Z" fill="#FF8B7B"/>
<path d="M298 297.06L307.48 295.78C307.558 295.766 307.638 295.767 307.716 295.784C307.794 295.801 307.867 295.833 307.933 295.879C307.998 295.924 308.053 295.982 308.096 296.049C308.138 296.117 308.167 296.192 308.18 296.27L309.65 303.7C309.678 303.895 309.668 304.094 309.619 304.285C309.571 304.476 309.485 304.655 309.367 304.813C309.249 304.971 309.101 305.104 308.932 305.205C308.763 305.305 308.575 305.372 308.38 305.4C305.07 305.79 303.47 305.81 299.31 306.4C296.75 306.75 289.8 308.4 286.47 307.13C283.14 305.86 284.47 302.59 286.03 302.84C289.64 303.42 294.5 300 296.62 297.84C296.981 297.435 297.467 297.161 298 297.06V297.06Z" fill="#263238"/>
<path d="M304.45 278.46L296.16 278.81C296.03 278.817 295.903 278.853 295.787 278.914C295.672 278.975 295.571 279.06 295.491 279.163C295.411 279.266 295.355 279.386 295.325 279.513C295.296 279.64 295.294 279.772 295.32 279.9L297.2 288.61C297.248 288.831 297.378 289.026 297.563 289.155C297.749 289.285 297.976 289.34 298.2 289.31L306.4 288.59C306.527 288.579 306.651 288.541 306.763 288.478C306.874 288.415 306.971 288.329 307.047 288.226C307.122 288.123 307.175 288.005 307.202 287.88C307.228 287.754 307.228 287.625 307.2 287.5L305.4 279.17C305.357 278.956 305.236 278.765 305.061 278.634C304.885 278.503 304.668 278.441 304.45 278.46Z" fill="#263238"/>
<path d="M340.76 175.94C340.76 175.94 283.5 186.79 283.76 205.31C284.09 227.95 289.43 270.64 292.96 283.19C293.244 284.191 293.862 285.065 294.712 285.665C295.562 286.266 296.592 286.557 297.63 286.49L304.84 286.03C305.451 285.993 306.049 285.832 306.597 285.558C307.144 285.284 307.631 284.902 308.027 284.435C308.423 283.968 308.72 283.425 308.901 282.84C309.082 282.255 309.143 281.639 309.08 281.03C307.81 267.95 305.91 230.72 307.88 211.9C323.69 211.9 358.67 211.54 362.74 200.28C365.37 192.646 366.921 184.683 367.35 176.62L340.76 175.94Z" fill="#4B46EC"/>
<path opacity="0.3" d="M340.76 175.94C340.76 175.94 283.5 186.79 283.76 205.31C284.09 227.95 289.43 270.64 292.96 283.19C293.244 284.191 293.862 285.065 294.712 285.665C295.562 286.266 296.592 286.557 297.63 286.49L304.84 286.03C305.451 285.993 306.049 285.832 306.597 285.558C307.144 285.284 307.631 284.902 308.027 284.435C308.423 283.968 308.72 283.425 308.901 282.84C309.082 282.255 309.143 281.639 309.08 281.03C307.81 267.95 305.91 230.72 307.88 211.9C323.69 211.9 358.67 211.54 362.74 200.28C365.37 192.646 366.921 184.683 367.35 176.62L340.76 175.94Z" fill="white"/>
<path d="M351.48 294.75L343.14 296.47L335.36 277.95L343.69 276.24L351.48 294.75Z" fill="#FF8B7B"/>
<path d="M342 295.35L351.15 292.58C351.303 292.529 351.469 292.54 351.613 292.612C351.757 292.683 351.868 292.808 351.92 292.96L354.56 300.06C354.676 300.442 354.635 300.854 354.448 301.206C354.26 301.559 353.941 301.822 353.56 301.94C350.36 302.85 348.78 303.12 344.76 304.34C342.28 305.09 335.69 307.84 332.2 307.1C328.71 306.36 329.53 302.93 331.08 302.93C334.74 302.93 338.99 298.78 340.74 296.28C341.046 295.839 341.489 295.512 342 295.35V295.35Z" fill="#263238"/>
<path d="M344.12 276.16L335.75 277.88C335.624 277.907 335.505 277.96 335.401 278.037C335.297 278.113 335.211 278.211 335.148 278.324C335.086 278.437 335.048 278.562 335.038 278.691C335.028 278.819 335.046 278.949 335.09 279.07L338.09 287.4C338.167 287.609 338.319 287.783 338.517 287.886C338.715 287.99 338.944 288.016 339.16 287.96L347.39 285.89C347.513 285.86 347.627 285.804 347.727 285.726C347.826 285.649 347.908 285.552 347.968 285.44C348.027 285.329 348.062 285.206 348.072 285.081C348.081 284.955 348.063 284.829 348.02 284.71L345.13 276.71C345.051 276.516 344.907 276.355 344.723 276.255C344.539 276.155 344.326 276.121 344.12 276.16V276.16Z" fill="#263238"/>
<path d="M364.19 176.28C364.19 176.28 302.69 186.92 304.91 205.28C307.64 227.81 327.35 270.28 333.22 282.6C333.677 283.558 334.456 284.325 335.421 284.768C336.386 285.21 337.476 285.299 338.5 285.02L345.08 283.26C345.661 283.104 346.204 282.834 346.68 282.466C347.155 282.098 347.553 281.64 347.85 281.117C348.146 280.594 348.336 280.017 348.409 279.421C348.481 278.824 348.434 278.218 348.27 277.64C344.93 265.75 335.9 232.48 333.14 210.51C348.95 210.51 379.82 211.51 383.89 200.28C386.521 192.646 388.075 184.683 388.51 176.62L364.19 176.28Z" fill="#4B46EC"/>
<path opacity="0.4" d="M364.19 176.28C364.19 176.28 302.69 186.92 304.91 205.28C307.64 227.81 327.35 270.28 333.22 282.6C333.677 283.558 334.456 284.325 335.421 284.768C336.386 285.21 337.476 285.299 338.5 285.02L345.08 283.26C345.661 283.104 346.204 282.834 346.68 282.466C347.155 282.098 347.553 281.64 347.85 281.117C348.146 280.594 348.336 280.017 348.409 279.421C348.481 278.824 348.434 278.218 348.27 277.64C344.93 265.75 335.9 232.48 333.14 210.51C348.95 210.51 379.82 211.51 383.89 200.28C386.521 192.646 388.075 184.683 388.51 176.62L364.19 176.28Z" fill="white"/>
<path d="M361.2 122.82C360.74 125.9 360.2 128.82 359.51 131.74C358.82 134.66 358.13 137.6 357.28 140.52C356.43 143.44 355.5 146.36 354.36 149.29C353.211 152.437 351.733 155.453 349.95 158.29L349.74 158.61C349.434 159.08 349.044 159.491 348.59 159.82C346.512 161.281 344.222 162.414 341.8 163.18C339.586 163.878 337.308 164.354 335 164.6C332.815 164.839 330.616 164.909 328.42 164.81C326.262 164.715 324.114 164.444 322 164C321.272 163.843 320.62 163.44 320.155 162.858C319.69 162.276 319.441 161.551 319.449 160.806C319.457 160.062 319.723 159.342 320.2 158.771C320.678 158.199 321.339 157.81 322.07 157.67H322.34C324.07 157.35 326.02 157 327.81 156.58C329.6 156.16 331.4 155.68 333.09 155.11C334.71 154.568 336.285 153.899 337.8 153.11C339.112 152.445 340.33 151.607 341.42 150.62L340 152.18C341.103 149.926 342.016 147.585 342.73 145.18C343.52 142.6 344.24 139.92 344.91 137.18C345.58 134.44 346.19 131.7 346.77 128.93C347.35 126.16 347.92 123.32 348.45 120.65V120.56C348.798 118.928 349.764 117.494 351.147 116.56C352.53 115.626 354.22 115.264 355.864 115.55C357.508 115.836 358.977 116.748 359.963 118.094C360.948 119.441 361.374 121.117 361.15 122.77L361.2 122.82Z" fill="#FF8B7B"/>
<path d="M363.41 108.43C356.23 108.95 348.99 113.35 343.96 123.22C351.33 129.22 361.96 133.28 361.96 133.28C361.96 133.28 373.31 115.14 363.41 108.43Z" fill="#4B46EC"/>
<path d="M364.49 108.21C371.585 107.218 378.749 106.813 385.91 107C388.103 107.063 390.26 107.577 392.246 108.51C394.233 109.442 396.006 110.774 397.456 112.42C398.906 114.067 400.002 115.995 400.675 118.083C401.348 120.172 401.585 122.376 401.37 124.56C399.66 143.75 393.2 166.65 388.51 176.7H340.51C346.098 159.279 349.576 141.25 350.87 123C351.107 119.349 352.588 115.89 355.067 113.198C357.545 110.507 360.871 108.747 364.49 108.21Z" fill="#4B46EC"/>
<path d="M401.56 116.49C401.95 117.41 402.23 118.12 402.56 118.93C402.89 119.74 403.13 120.5 403.4 121.28C403.93 122.86 404.4 124.44 404.9 126.04C405.822 129.261 406.553 132.533 407.09 135.84C407.661 139.24 407.952 142.682 407.96 146.13C407.993 149.8 407.522 153.458 406.56 157L406.47 157.34C406.158 158.471 405.475 159.464 404.53 160.16C401.277 162.491 397.642 164.237 393.79 165.32C390.29 166.348 386.706 167.064 383.08 167.46C379.58 167.848 376.061 168.028 372.54 168C370.79 168 369.05 167.92 367.32 167.82C365.59 167.72 363.88 167.58 362.07 167.34C361.295 167.231 360.586 166.843 360.078 166.248C359.569 165.653 359.295 164.893 359.307 164.111C359.319 163.328 359.617 162.577 360.144 161.999C360.672 161.42 361.392 161.055 362.17 160.97H362.29C365.44 160.66 368.76 160.29 371.95 159.76C375.14 159.23 378.33 158.67 381.41 157.91C384.415 157.208 387.363 156.282 390.23 155.14C392.784 154.157 395.167 152.776 397.29 151.05L395.29 154.21C395.724 151.651 395.851 149.049 395.67 146.46C395.476 143.658 395.096 140.871 394.53 138.12C393.95 135.31 393.24 132.48 392.42 129.67C392.01 128.26 391.58 126.86 391.11 125.48L390.39 123.41C390.16 122.75 389.89 122 389.69 121.47L389.63 121.34C388.99 119.749 389.007 117.968 389.68 116.39C390.352 114.812 391.624 113.565 393.215 112.925C394.806 112.284 396.587 112.302 398.165 112.975C399.743 113.647 400.99 114.919 401.63 116.51L401.56 116.49Z" fill="#FF8B7B"/>
<path d="M390.39 107.72C397.39 109.38 403.85 114.87 407.25 125.42C399.01 130.17 387.89 132.49 387.89 132.49C387.89 132.49 379.55 112.78 390.39 107.72Z" fill="#4B46EC"/>
<path d="M326.13 158L317.78 155.23L318.33 166.1C318.33 166.1 324.13 167.25 327.5 163.55L326.13 158Z" fill="#FF8B7B"/>
<path d="M367.83 108.63C370.92 107.63 372.48 103.63 370.2 99.63L379.43 91.77C380.3 96.51 381.43 103.3 383.65 106.91C383.956 107.407 384.103 107.985 384.071 108.568C384.039 109.151 383.829 109.71 383.47 110.17C382.18 111.84 379.25 113.92 372.7 114C364.81 114.1 365.29 111.42 366.22 109.88C366.59 109.284 367.161 108.841 367.83 108.63V108.63Z" fill="#FF8B7B"/>
<path opacity="0.2" d="M370.84 101L378.03 96.34C377.979 97.4413 377.812 98.5341 377.53 99.6C376.87 102.13 373.82 104.47 370.95 105.48C371.437 104.02 371.398 102.435 370.84 101V101Z" fill="black"/>
<path d="M380.88 79.74C382 88.13 383.07 92.97 379.76 98.19C378.702 99.897 377.198 101.282 375.409 102.195C373.62 103.108 371.616 103.513 369.613 103.368C367.61 103.223 365.686 102.532 364.047 101.371C362.409 100.209 361.12 98.6218 360.32 96.78C357.1 89.78 355.81 77.22 363.2 72.06C364.771 70.9009 366.619 70.1749 368.559 69.9549C370.498 69.7348 372.462 70.0284 374.253 70.8063C376.043 71.5841 377.598 72.8188 378.761 74.3867C379.924 75.9547 380.655 77.8007 380.88 79.74V79.74Z" fill="#FF8B7B"/>
<path d="M382.09 73.45C385.01 70.58 384.57 65.17 379.69 64.73C377.013 64.3874 374.3 65 372.03 66.46C372.03 66.46 359.65 62.46 353.71 69.89C348.71 76.18 356.76 76.33 356.76 76.33C356.76 76.33 349.87 84.27 362.68 81.54C367.705 80.3097 372.388 77.9614 376.38 74.67C376.38 74.67 376.39 76.42 382.09 73.45Z" fill="#263238"/>
<path d="M373.33 74.83C373.04 76.1 370.73 79.35 368.82 80.92C369.9 80.61 374.53 77.74 376.18 74.84C375.231 74.8917 374.279 74.8884 373.33 74.83V74.83Z" fill="#263238"/>
<path d="M382.68 73.92C383.81 73.28 385.5 72.41 390.22 73.11C387.68 71.39 384.01 71.06 380.76 71.82C381.444 72.4782 382.086 73.1796 382.68 73.92Z" fill="#263238"/>
<path d="M359.34 74.93C358.34 77.52 353.97 80.65 349.19 76.38C350.731 77.1152 352.49 77.2511 354.126 76.7613C355.762 76.2715 357.157 75.1911 358.04 73.73C358.15 74.0163 358.325 74.2735 358.55 74.4816C358.776 74.6896 359.046 74.8431 359.34 74.93V74.93Z" fill="#263238"/>
<path d="M378.39 66.7C376.09 68.21 368.39 67.7 369.39 61.86C370.93 64.79 375.46 64.5 378.78 64.69C378.613 65.3523 378.483 66.0233 378.39 66.7Z" fill="#263238"/>
<path d="M380.83 86.05C378.961 84.5437 377.456 82.6342 376.43 80.4643C375.403 78.2945 374.88 75.9205 374.9 73.52C374.9 73.52 383.09 70.66 387.1 74.24C390.13 76.94 388.32 88.44 380.83 86.05Z" fill="#263238"/>
<path d="M385.39 84.77C385.077 86.5822 384.113 88.2178 382.68 89.3699C380.8 90.8199 378.8 88.91 378.74 86.58C378.69 84.48 379.98 81.5799 382.14 81.0099C384.3 80.4399 385.77 82.51 385.39 84.77Z" fill="#FF8B7B"/>
<path d="M367.7 86.94C367.83 87.61 367.59 88.2399 367.15 88.3399C366.71 88.4399 366.25 87.9799 366.15 87.3399C366.05 86.6999 366.26 86.04 366.7 85.94C367.14 85.84 367.57 86.26 367.7 86.94Z" fill="#263238"/>
<path d="M360.15 88.69C360.28 89.37 360.03 89.99 359.59 90.1C359.15 90.21 358.7 89.73 358.59 89.1C358.48 88.47 358.71 87.8 359.15 87.7C359.59 87.6 360 88 360.15 88.69Z" fill="#263238"/>
<path d="M362.66 88.66C362.453 90.5931 361.989 92.4898 361.28 94.3C361.741 94.4574 362.231 94.5113 362.715 94.4577C363.199 94.4041 363.665 94.2444 364.08 93.99L362.66 88.66Z" fill="#FF5652"/>
<path d="M365.46 97.77C366.242 97.6169 366.984 97.3055 367.641 96.8549C368.298 96.4043 368.856 95.8241 369.28 95.15C369.306 95.1047 369.313 95.0512 369.3 95.0007C369.287 94.9503 369.255 94.907 369.21 94.88C369.162 94.8545 369.106 94.8486 369.054 94.8635C369.002 94.8785 368.957 94.913 368.93 94.96C368.456 95.6837 367.821 96.2885 367.076 96.7273C366.33 97.166 365.493 97.427 364.63 97.49C364.577 97.49 364.526 97.511 364.489 97.5485C364.451 97.5861 364.43 97.6369 364.43 97.69C364.43 97.743 364.451 97.7939 364.489 97.8314C364.526 97.8689 364.577 97.89 364.63 97.89C364.91 97.8741 365.187 97.8339 365.46 97.77V97.77Z" fill="#263238"/>
<path d="M370.82 82.63C370.88 82.5993 370.929 82.5503 370.96 82.49C370.986 82.4435 371.003 82.3923 371.009 82.3392C371.015 82.2862 371.011 82.2325 370.996 82.1813C370.981 82.13 370.956 82.0822 370.922 82.0408C370.889 81.9994 370.847 81.9651 370.8 81.94C370.248 81.6259 369.627 81.4526 368.993 81.4351C368.358 81.4177 367.728 81.5567 367.16 81.84C367.114 81.8659 367.073 81.9008 367.041 81.9427C367.008 81.9845 366.984 82.0324 366.97 82.0836C366.956 82.1348 366.952 82.1882 366.959 82.2408C366.966 82.2934 366.983 82.3441 367.01 82.39C367.064 82.4814 367.152 82.5482 367.255 82.5762C367.357 82.6042 367.467 82.5912 367.56 82.54C368.009 82.3229 368.505 82.2195 369.004 82.2387C369.502 82.2579 369.989 82.3991 370.42 82.65C370.482 82.6842 370.552 82.7005 370.623 82.697C370.694 82.6934 370.762 82.6702 370.82 82.63V82.63Z" fill="#263238"/>
<path d="M356.52 86.05C356.586 86.0455 356.649 86.025 356.705 85.9901C356.761 85.9552 356.807 85.9071 356.84 85.85C357.09 85.3979 357.439 85.0089 357.862 84.7125C358.285 84.4162 358.77 84.2203 359.28 84.14C359.333 84.1362 359.384 84.122 359.431 84.0983C359.478 84.0746 359.52 84.0419 359.554 84.0019C359.589 83.9619 359.615 83.9156 359.631 83.8655C359.648 83.8154 359.654 83.7625 359.65 83.71C359.646 83.6574 359.632 83.6061 359.608 83.559C359.585 83.5119 359.552 83.4699 359.512 83.4355C359.472 83.4012 359.426 83.375 359.376 83.3586C359.325 83.3422 359.273 83.3359 359.22 83.34C358.58 83.4255 357.968 83.6601 357.435 84.0248C356.902 84.3895 356.462 84.8742 356.15 85.44C356.123 85.4852 356.105 85.5354 356.097 85.5876C356.09 85.6398 356.093 85.693 356.106 85.7441C356.119 85.7952 356.142 85.8432 356.173 85.8854C356.205 85.9276 356.245 85.9632 356.29 85.99C356.359 86.0317 356.439 86.0525 356.52 86.05Z" fill="#263238"/>
<path d="M332.6 146.58C332.06 144.14 335.34 142.4 339.6 142.64C343.86 142.88 347.66 144.14 351.15 142.9L354.23 145.49L332.6 146.58Z" fill="#4B46EC"/>
<path opacity="0.8" d="M332.6 146.58C332.06 144.14 335.34 142.4 339.6 142.64C343.86 142.88 347.66 144.14 351.15 142.9L354.23 145.49L332.6 146.58Z" fill="white"/>
<path d="M342.9 181.34L362.56 180.34C363.03 180.34 363.32 179.83 363.19 179.26L355.72 145.61C355.678 145.345 355.547 145.102 355.349 144.92C355.151 144.739 354.898 144.629 354.63 144.61L334.97 145.61C334.5 145.61 334.21 146.12 334.34 146.69L341.81 180.34C341.852 180.605 341.983 180.848 342.181 181.03C342.379 181.211 342.632 181.321 342.9 181.34Z" fill="#263238"/>
<path d="M332.67 146.91C332.13 144.47 329.07 142.23 325.87 141.52C322.67 140.81 319.98 140.93 316.77 138.83L315.38 140.83L332.67 146.91Z" fill="#4B46EC"/>
<path opacity="0.8" d="M332.67 146.91C332.13 144.47 329.07 142.23 325.87 141.52C322.67 140.81 319.98 140.93 316.77 138.83L315.38 140.83L332.67 146.91Z" fill="white"/>
<path d="M338.37 181.08L322.62 175.57C322.384 175.435 322.179 175.251 322.02 175.03C321.861 174.81 321.752 174.557 321.7 174.29L314.24 140.64C314.11 140.07 314.32 139.71 314.7 139.85L330.44 145.36C330.678 145.49 330.885 145.671 331.044 145.891C331.203 146.111 331.311 146.363 331.36 146.63L338.83 180.29C339 180.86 338.75 181.21 338.37 181.08Z" fill="#263238"/>
<path d="M322.35 157.86L323.15 161.58C323.286 162.205 323.209 162.857 322.932 163.433C322.654 164.009 322.193 164.476 321.62 164.76L319.31 165.91C319.044 166.042 318.75 166.107 318.453 166.102C318.156 166.097 317.865 166.021 317.603 165.88C317.342 165.739 317.118 165.537 316.95 165.292C316.783 165.047 316.676 164.765 316.64 164.47L315.81 157.87C315.781 157.624 315.801 157.375 315.869 157.137C315.937 156.899 316.051 156.677 316.205 156.483C316.36 156.29 316.551 156.129 316.768 156.01C316.985 155.891 317.224 155.816 317.47 155.79L319.24 155.61C319.944 155.539 320.649 155.729 321.223 156.144C321.796 156.559 322.197 157.169 322.35 157.86V157.86Z" fill="#FF8B7B"/>
<path d="M341.73 181.55L338.96 181.38C338.85 181.362 338.749 181.311 338.668 181.235C338.588 181.158 338.533 181.059 338.51 180.95L330.77 146.05C330.77 145.82 330.84 145.65 331.03 145.66L333.8 145.84C333.91 145.856 334.013 145.907 334.093 145.984C334.174 146.061 334.229 146.161 334.25 146.27L341.99 181.17C342 181.39 341.92 181.57 341.73 181.55Z" fill="#263238"/>
<path d="M364.61 160.92L356.26 158.15L357 169.3C357 169.3 362.64 170.17 366 166.47L364.61 160.92Z" fill="#FF8B7B"/>
<path d="M350 161.25L349.91 165.05C349.893 165.691 350.09 166.319 350.47 166.836C350.851 167.352 351.393 167.727 352.01 167.9L357.01 169.3L356.3 158.15L352.64 158.46C351.934 158.519 351.274 158.836 350.787 159.351C350.3 159.865 350.02 160.542 350 161.25V161.25Z" fill="#FF8B7B"/>
<path d="M84.72 307H81.05L102.35 16.67H106.02L84.72 307Z" fill="#4B46EC"/>
<path d="M118.22 307H121.89L115.72 16.67H112.05L118.22 307Z" fill="#4B46EC"/>
<path d="M129.37 184.33H83.2V192.33H129.37V184.33Z" fill="#4B46EC"/>
<path d="M121.88 24.67H98.58V32.67H121.88V24.67Z" fill="#4B46EC"/>
<path d="M168.27 186.89H66.04L53.4 28.67H155.62L168.27 186.89Z" fill="#4B46EC"/>
<path opacity="0.4" d="M168.27 186.89H68.48L55.84 28.67H155.62L168.27 186.89Z" fill="white"/>
<path opacity="0.2" d="M61.24 96.23C61.24 96.23 98 98 124.92 114C136.48 101.56 151.56 94.24 161.02 96.23L168.27 186.89H68.48L61.24 96.23Z" fill="white"/>
<path opacity="0.2" d="M162.93 120.12C162.93 120.12 131.47 121.12 104.58 132.94C94.92 122.67 70.7 122 63.74 127.58L68.48 186.89H168.27L162.93 120.12Z" fill="white"/>
<path d="M123 70.39C122 64.19 116.6 59.17 110.84 59.17C105.08 59.17 101.2 64.17 102.16 70.39C103.12 76.61 108.57 81.61 114.32 81.61C120.07 81.61 124 76.59 123 70.39Z" fill="white"/>
<path d="M196 41C194.82 46.1 193.5 55.45 196.95 58.86C193.892 63.5345 189.473 67.1577 184.29 69.24C177.61 64.97 181.09 58.86 181.09 58.86C186.83 57.5 186.83 53.28 185.97 49.31L196 41Z" fill="#FFC3BD"/>
<path d="M197 63.79C198.074 63.0173 198.969 62.0209 199.621 60.8695C200.274 59.718 200.669 58.4389 200.78 57.12C200.78 57.12 196 54 180.21 58C177.917 60.0352 175.727 62.1846 173.65 64.44C173.65 64.44 174.65 65.97 178.94 66.36C183.23 66.75 197 63.79 197 63.79Z" fill="#4B46EC"/>
<path opacity="0.7" d="M197 63.79C198.074 63.0173 198.969 62.0209 199.621 60.8695C200.274 59.718 200.669 58.4389 200.78 57.12C200.78 57.12 196 54 180.21 58C177.917 60.0352 175.727 62.1846 173.65 64.44C173.65 64.44 174.65 65.97 178.94 66.36C183.23 66.75 197 63.79 197 63.79Z" fill="white"/>
<path d="M211.13 66.64C213.42 70.55 215.53 74.47 217.53 78.51C219.61 82.5686 221.466 86.7382 223.09 91L223.67 92.7L224.2 94.49C224.354 94.988 224.454 95.5008 224.5 96.02C224.551 96.6136 224.531 97.2112 224.44 97.8C224.278 98.7891 223.939 99.7409 223.44 100.61C222.672 101.905 221.695 103.063 220.55 104.04C219.609 104.875 218.606 105.637 217.55 106.32C213.574 108.795 209.282 110.722 204.79 112.05L203.08 108.05C206.718 105.903 210.188 103.483 213.46 100.81C214.168 100.186 214.836 99.5178 215.46 98.81C215.958 98.2926 216.364 97.694 216.66 97.04C216.74 96.82 216.75 96.68 216.71 96.71C216.699 96.7492 216.699 96.7908 216.71 96.83C216.71 96.83 216.71 96.9 216.71 96.93C216.684 96.8712 216.66 96.8112 216.64 96.75L216.14 95.39L215.54 93.98C213.86 90.18 211.86 86.3 209.83 82.46L203.51 71L211.13 66.64Z" fill="#FFC3BD"/>
<path d="M195.71 107L204.8 107.88L207.32 110.35C206.4 112.64 203.61 113.64 201.92 114.05L195.92 116.19C195.374 116.388 194.779 116.404 194.223 116.234C193.668 116.065 193.182 115.719 192.84 115.25L191.5 113.45C191.266 113.133 191.099 112.772 191.008 112.388C190.917 112.005 190.904 111.607 190.971 111.219C191.037 110.831 191.181 110.46 191.394 110.128C191.607 109.797 191.884 109.512 192.21 109.29L195.71 107Z" fill="#FFC3BD"/>
<path d="M203.88 59.72C207.47 59.89 211.16 60.54 217.88 74.65C214.3 79.34 206 83.1 206 83.1L202.74 78.88C198.83 70.51 203.92 59.72 203.92 59.72" fill="#263238"/>
<path d="M165.19 70.79C165.19 78.08 165.97 90.79 168.8 112.92H203.72C203.65 100.24 203.33 91.79 208.81 69.42C209.107 68.2698 209.152 67.0689 208.941 65.8998C208.731 64.7307 208.269 63.6211 207.589 62.6472C206.909 61.6734 206.025 60.8583 205 60.2581C203.975 59.6578 202.832 59.2866 201.65 59.17C200.18 59.02 198.6 58.89 196.98 58.81C191.7 58.4346 186.4 58.4346 181.12 58.81C179.12 58.99 176.99 59.26 175.03 59.55C172.319 59.9431 169.838 61.2917 168.034 63.3526C166.23 65.4135 165.221 68.0511 165.19 70.79V70.79Z" fill="#263238"/>
<path d="M174.56 68.5C174.09 69.88 173.64 71.01 173.12 72.23C172.6 73.45 172.06 74.59 171.5 75.76C170.335 78.0879 169.04 80.3482 167.62 82.53C166.9 83.63 166.15 84.71 165.35 85.78C164.55 86.85 163.68 87.86 162.78 88.86C160.933 90.9231 158.845 92.7563 156.56 94.32L155.74 94.88L154.9 95.01C154.041 95.1369 153.165 95.0789 152.33 94.84C151.715 94.6677 151.126 94.412 150.58 94.08C149.784 93.6002 149.055 93.0186 148.41 92.35C147.412 91.3018 146.508 90.1674 145.71 88.96C144.295 86.7846 143.029 84.5161 141.92 82.17C140.85 79.88 139.92 77.58 138.92 75.27C137.92 72.96 137.18 70.62 136.45 68.21L140.45 66.54C141.61 68.63 142.78 70.76 143.99 72.84C145.2 74.92 146.39 76.99 147.67 78.97C148.878 80.9237 150.197 82.8068 151.62 84.61C152.216 85.3953 152.886 86.1219 153.62 86.78C153.84 86.9783 154.086 87.1464 154.35 87.28C154.49 87.35 154.28 87.09 153.52 87.18L151.86 87.87C153.516 86.5306 155.024 85.0188 156.36 83.36C157.754 81.6195 159.037 79.7925 160.2 77.89C161.39 75.96 162.45 73.89 163.46 71.89C163.96 70.89 164.46 69.81 164.9 68.76C165.34 67.71 165.81 66.59 166.16 65.67L174.56 68.5Z" fill="#FFC3BD"/>
<path d="M178.31 67.41C178.31 63.6 175.03 59.55 175.03 59.55C169.19 60.76 163.73 63.08 160.03 75.1C162.31 81.1 170.42 85.72 170.42 85.72L175.89 75.72C175.89 75.72 178.27 71.23 178.31 67.41Z" fill="#263238"/>
<path d="M127.18 58.37C126.52 57.61 125.18 58.04 124.47 58.99C123.76 59.94 123.79 61.75 125.17 63.86C125.51 62.25 128.87 60.31 127.18 58.37Z" fill="white"/>
<path d="M141.72 57.79C140.458 58.0986 139.174 58.3093 137.88 58.42C136.59 58.52 135.3 58.63 134.02 58.8L130.16 59.29L128.23 59.47C127.561 59.5557 126.882 59.5116 126.23 59.34C126.196 59.3254 126.166 59.3011 126.146 59.27C126.125 59.2388 126.114 59.2023 126.114 59.165C126.114 59.1276 126.125 59.0911 126.146 59.06C126.166 59.0289 126.196 59.0045 126.23 58.99C126.827 58.7039 127.471 58.5278 128.13 58.47L130.06 58.27L133.94 57.98C135.23 57.89 136.51 57.74 137.8 57.58C139.087 57.4282 140.385 57.3814 141.68 57.44C141.703 57.4399 141.726 57.4447 141.747 57.4538C141.769 57.463 141.788 57.4764 141.804 57.4933C141.82 57.5101 141.832 57.5301 141.84 57.5519C141.848 57.5736 141.851 57.5968 141.85 57.62C141.849 57.6585 141.836 57.6958 141.813 57.7264C141.79 57.757 141.757 57.7793 141.72 57.79V57.79Z" fill="#263238"/>
<path d="M141 64.18L140.13 60.18L136.74 56.81C136.561 56.6307 136.346 56.4916 136.109 56.402C135.872 56.3125 135.619 56.2744 135.366 56.2905C135.114 56.3066 134.867 56.3764 134.644 56.4953C134.42 56.6142 134.225 56.7795 134.07 56.98L132 59.76C131.771 60.0571 131.641 60.4187 131.628 60.7937C131.615 61.1688 131.721 61.5383 131.93 61.85L134.93 66.31C134.93 66.31 136.66 71.25 139.93 71.81C141.236 69.4925 141.618 66.7673 141 64.18Z" fill="#FFC3BD"/>
<path d="M178.24 30.31C178.09 31 177.61 31.49 177.17 31.41C176.73 31.33 176.48 30.71 176.63 30.03C176.78 29.35 177.25 28.85 177.7 28.93C178.15 29.01 178.38 29.63 178.24 30.31Z" fill="#263238"/>
<path d="M177.88 29L176.35 28.23C176.35 28.23 176.92 29.67 177.88 29Z" fill="#263238"/>
<path d="M177.88 25.68C177.831 25.662 177.786 25.6341 177.748 25.598C177.71 25.5619 177.68 25.5183 177.66 25.47C177.618 25.3715 177.616 25.2607 177.653 25.1603C177.69 25.06 177.764 24.9776 177.86 24.93C178.434 24.6287 179.072 24.4713 179.72 24.4713C180.368 24.4713 181.006 24.6287 181.58 24.93C181.626 24.9574 181.666 24.9941 181.698 25.0378C181.729 25.0815 181.751 25.1312 181.762 25.1838C181.774 25.2364 181.774 25.2907 181.763 25.3434C181.752 25.3961 181.731 25.446 181.7 25.49C181.642 25.5805 181.552 25.6454 181.448 25.6715C181.344 25.6975 181.234 25.6827 181.14 25.63C180.686 25.3942 180.182 25.2711 179.67 25.2711C179.158 25.2711 178.654 25.3942 178.2 25.63C178.103 25.6858 177.989 25.7036 177.88 25.68V25.68Z" fill="#263238"/>
<path d="M177.88 32.2C176.945 33.6516 175.822 34.973 174.54 36.13C174.837 36.4403 175.199 36.6804 175.6 36.8327C176.002 36.9849 176.432 37.0455 176.86 37.01L177.88 32.2Z" fill="#ED847E"/>
<path d="M201.74 31.59C199.45 39.89 198.66 43.44 193.53 47C185.82 52.34 176.22 48.07 176.01 39.34C175.82 31.49 179.59 19.24 188.46 17.34C190.384 16.8946 192.391 16.9639 194.28 17.541C196.168 18.1181 197.872 19.1826 199.218 20.6273C200.564 22.072 201.506 23.8459 201.949 25.7705C202.392 27.695 202.32 29.7022 201.74 31.59V31.59Z" fill="#FFC3BD"/>
<path d="M183.54 32.67C179.62 33.08 179.96 26.67 181.54 24.92C179.65 24.48 178.16 23 179.08 19.92C180 16.84 183.5 13.83 189.83 13.08C196.16 12.33 202.69 13.67 206.08 21.25C209.47 28.83 207.25 36.42 201.75 39.75C203.66 42.67 200.41 47.67 191.25 47.33C182.09 46.99 179.2 36.5 183.54 32.67Z" fill="#263238"/>
<path d="M204.7 45.19C204.641 45.1888 204.583 45.1673 204.538 45.1291C204.492 45.0909 204.461 45.0383 204.45 44.98C204.11 42.5 202.66 39.72 200.29 39.47C200.257 39.4676 200.226 39.4585 200.197 39.4434C200.168 39.4284 200.143 39.4075 200.122 39.3823C200.101 39.357 200.086 39.3278 200.077 39.2965C200.068 39.2652 200.066 39.2323 200.07 39.2C200.073 39.1671 200.082 39.1351 200.096 39.1057C200.111 39.0763 200.132 39.0502 200.157 39.0288C200.182 39.0075 200.211 38.9913 200.243 38.9812C200.274 38.9711 200.307 38.9673 200.34 38.97C202.98 39.25 204.58 42.25 204.95 44.91C204.959 44.9749 204.941 45.0405 204.902 45.0929C204.863 45.1452 204.805 45.1801 204.74 45.19H204.7Z" fill="#263238"/>
<path d="M206.77 42.68C206.729 42.6796 206.688 42.6695 206.652 42.6503C206.615 42.6312 206.584 42.6037 206.56 42.57C205.16 40.5 202.63 38.64 200.4 39.46C200.338 39.4799 200.27 39.4755 200.211 39.4477C200.151 39.4199 200.105 39.3707 200.08 39.31C200.057 39.2477 200.061 39.179 200.089 39.119C200.117 39.0589 200.168 39.0126 200.23 38.99C202.73 38.08 205.47 40.06 206.98 42.29C206.999 42.3175 207.012 42.3484 207.018 42.381C207.025 42.4135 207.025 42.4471 207.018 42.4797C207.012 42.5123 206.999 42.5432 206.98 42.5708C206.962 42.5983 206.938 42.6218 206.91 42.64C206.869 42.6681 206.82 42.6822 206.77 42.68Z" fill="#263238"/>
<path d="M197 18.77C191.93 17.14 187.64 13.67 190.72 11.5C193.8 9.33002 201.64 11.75 204.39 15.5C207.14 19.25 202.75 20.63 197 18.77Z" fill="#4B46EC"/>
<path d="M198.48 16.54C193.41 14.91 192.89 12.97 192.2 9.26C189.66 -4.33 203.89 -0.33 208.37 9.67C210.27 13.91 204.25 18.39 198.48 16.54Z" fill="#263238"/>
<path d="M194.2 13.63C194.163 13.6278 194.127 13.6178 194.094 13.6005C194.061 13.5833 194.033 13.5592 194.01 13.53C189.11 7.43999 189.39 3.21999 191.12 1.44999C192.85 -0.32001 196.64 -0.470011 201.27 3.08999C201.323 3.12977 201.358 3.18899 201.367 3.25463C201.377 3.32027 201.36 3.38695 201.32 3.44C201.28 3.49304 201.221 3.52811 201.155 3.53748C201.09 3.54686 201.023 3.52978 200.97 3.49C196.58 0.109998 193.04 0.209996 191.48 1.8C189.92 3.39 189.7 7.38999 194.4 13.22C194.446 13.2667 194.471 13.3296 194.471 13.395C194.471 13.4604 194.446 13.5233 194.4 13.57C194.373 13.5938 194.341 13.6115 194.307 13.6219C194.272 13.6322 194.236 13.635 194.2 13.63V13.63Z" fill="#263238"/>
<path d="M168.8 112.92C168.8 112.92 169.48 177.68 169.13 203.92C168.76 231.2 160.81 294.92 160.81 294.92H167.69C167.69 294.92 186.51 241.97 184.59 203.92C190.53 174.71 196.01 112.92 196.01 112.92H168.8Z" fill="#FFC3BD"/>
<path d="M168.83 291.54C168.83 291.54 161.36 290.74 161.03 293.06C160.19 299 153.12 304.11 148.26 304.06C146.17 304.06 146.85 305.5 148.16 306.28C150.08 307.43 156.42 307.63 158.76 306.39C160.86 305.27 164.66 307.26 166.53 307.19C168.1 307.12 168.32 306.3 168.14 304.53C167.96 302.76 167.69 294.89 168.83 291.54Z" fill="#FFC3BD"/>
<path d="M211.73 291.41C211.73 291.41 205.25 290.59 205.35 292.91C205.59 298.91 199.7 304.11 194.83 304.1C192.74 304.1 193.74 305.54 195.22 306.32C197.4 307.47 203.66 307.5 205.91 306.63C207.91 305.84 210.5 307.3 212.35 307.23C213.9 307.16 214.07 305.56 213.65 303.75C213.23 301.94 211.33 294.75 211.73 291.41Z" fill="#FFC3BD"/>
<path d="M177.92 112.92C177.92 112.92 191.92 180.73 197.77 206.1C203.88 232.73 205.46 295.24 205.45 297.22L211.24 294.89C211.24 294.89 221.54 225.36 212.94 201.71C213.94 172.09 203.02 112.92 203.02 112.92H177.92Z" fill="#FFC3BD"/>
<path d="M191 177.06C190.968 178.92 191.49 180.747 192.5 182.31C192.5 182.31 199.32 184.9 212.35 182.31C213.6 181.24 212.28 176.42 212.28 176.42C212.28 176.42 201.42 179 191 177.06Z" fill="#4B46EC"/>
<path opacity="0.4" d="M191 177.06C190.968 178.92 191.49 180.747 192.5 182.31C192.5 182.31 199.32 184.9 212.35 182.31C213.6 181.24 212.28 176.42 212.28 176.42C212.28 176.42 201.42 179 191 177.06Z" fill="white"/>
<path d="M204.56 113.42C204.98 112.67 203.99 110.06 203.99 110.06H179.17C179.294 111.307 179.712 112.506 180.39 113.56C180.39 113.56 184.17 167.04 190.39 177.46C192.2 180.53 211.97 180.13 213.69 176.63C216.18 171.55 208.2 137.57 208.2 137.57C212.22 125 204.56 113.42 204.56 113.42Z" fill="#4B46EC"/>
<path opacity="0.2" d="M194.47 136.17C196.89 136.657 199.4 136.424 201.69 135.5C201.69 135.5 197.64 144.79 190.14 145.83C192.245 142.949 193.72 139.658 194.47 136.17V136.17Z" fill="black"/>
<path d="M168 177.06C168.191 178.624 168.595 180.155 169.2 181.61C169.2 181.61 175.1 185.13 188.13 182.51C189.39 181.44 189.28 177.06 189.28 177.06C189.28 177.06 178.42 179 168 177.06Z" fill="#4B46EC"/>
<path opacity="0.4" d="M168 177.06C168.191 178.624 168.595 180.155 169.2 181.61C169.2 181.61 175.1 185.13 188.13 182.51C189.39 181.44 189.28 177.06 189.28 177.06C189.28 177.06 178.42 179 168 177.06Z" fill="white"/>
<path d="M196.31 113.67C196.903 112.527 197.35 111.314 197.64 110.06H167.31C167.114 111.238 167.238 112.447 167.67 113.56C167.67 113.56 161.88 169.12 167.14 177C170.31 181.75 187.44 181.79 191 176.63C194.56 171.47 194.47 136.17 194.47 136.17C200.14 127.83 196.31 113.67 196.31 113.67Z" fill="#4B46EC"/>
<path d="M187 33.77C186.153 35.2219 184.783 36.2951 183.17 36.77C181.04 37.37 180.04 35.5 180.68 33.51C181.26 31.73 183.07 29.26 185.18 29.51C187.29 29.76 188.05 32 187 33.77Z" fill="#FFC3BD"/>
<path d="M435.34 307.22H20.67V317.22H435.34V307.22Z" fill="#263238"/>
<path d="M34.21 157.67H31.21V313.67H34.21V157.67Z" fill="#263238"/>
<path d="M112.33 157.67H109.33V313.67H112.33V157.67Z" fill="#263238"/>
<path d="M190.44 157.67H187.44V313.67H190.44V157.67Z" fill="#263238"/>
<path d="M268.56 157.67H265.56V313.67H268.56V157.67Z" fill="#263238"/>
<path d="M346.67 157.67H343.67V313.67H346.67V157.67Z" fill="#263238"/>
<path d="M424.79 157.67H421.79V313.67H424.79V157.67Z" fill="#263238"/>
<path d="M441.93 183.28V178.28C444.279 178.202 446.507 177.214 448.141 175.524C449.775 173.834 450.689 171.576 450.689 169.225C450.689 166.874 449.775 164.616 448.141 162.926C446.507 161.236 444.279 160.248 441.93 160.17H14.07C11.7205 160.248 9.49342 161.236 7.85903 162.926C6.22464 164.616 5.31096 166.874 5.31096 169.225C5.31096 171.576 6.22464 173.834 7.85903 175.524C9.49342 177.214 11.7205 178.202 14.07 178.28V183.28C10.4073 183.182 6.9274 181.659 4.37132 179.034C1.81525 176.408 0.384933 172.889 0.384933 169.225C0.384933 165.561 1.81525 162.042 4.37132 159.417C6.9274 156.791 10.4073 155.268 14.07 155.17H441.93C445.593 155.268 449.073 156.791 451.629 159.417C454.185 162.042 455.615 165.561 455.615 169.225C455.615 172.889 454.185 176.408 451.629 179.034C449.073 181.659 445.593 183.182 441.93 183.28V183.28Z" fill="#263238"/>
</svg>
