<svg width="389" height="334" viewBox="0 0 389 334" fill="none" xmlns="http://www.w3.org/2000/svg">
<path d="M194 333.56C301.082 333.56 387.89 328.492 387.89 322.24C387.89 315.988 301.082 310.92 194 310.92C86.9175 310.92 0.109985 315.988 0.109985 322.24C0.109985 328.492 86.9175 333.56 194 333.56Z" fill="#F5F5F5"/>
<path d="M371.94 287.91C372.84 283.58 374.07 273.47 366.66 271.02C357.16 267.89 351.52 260.53 351.84 252.21C352.16 243.89 342.16 235.79 334.66 243.59C327.16 251.39 328.16 237.59 318.16 234.24C308.16 230.89 299.68 239.02 302.42 246.45C305.16 253.88 295.29 258.53 283.48 252.21C271.67 245.89 258.66 257.39 261.16 266.39C263.66 275.39 261.61 276.39 254.16 273.39C247.16 270.57 234.91 277.9 237.33 287.91H371.94Z" fill="#4B46EC"/>
<path opacity="0.1" d="M371.94 287.91C372.84 283.58 374.07 273.47 366.66 271.02C357.16 267.89 351.52 260.53 351.84 252.21C352.16 243.89 342.16 235.79 334.66 243.59C327.16 251.39 328.16 237.59 318.16 234.24C308.16 230.89 299.68 239.02 302.42 246.45C305.16 253.88 295.29 258.53 283.48 252.21C271.67 245.89 258.66 257.39 261.16 266.39C263.66 275.39 261.61 276.39 254.16 273.39C247.16 270.57 234.91 277.9 237.33 287.91H371.94Z" fill="white"/>
<path d="M19.55 287.91H122.11C123.25 283.17 119.62 277.68 115.66 276.91C110.66 275.91 105.66 267.11 105.4 261.51C105.14 255.91 96.16 238.68 82.16 249.32C68.16 259.96 72.41 250.88 62.29 247.9C52.17 244.92 45.77 253.51 50.22 259.96C50.22 259.96 40.04 257.41 35.85 266.91C31.66 276.41 35.85 282.31 35.85 282.31C35.85 282.31 23.52 281.93 19.55 287.91Z" fill="#4B46EC"/>
<path opacity="0.1" d="M19.55 287.91H122.11C123.25 283.17 119.62 277.68 115.66 276.91C110.66 275.91 105.66 267.11 105.4 261.51C105.14 255.91 96.16 238.68 82.16 249.32C68.16 259.96 72.41 250.88 62.29 247.9C52.17 244.92 45.77 253.51 50.22 259.96C50.22 259.96 40.04 257.41 35.85 266.91C31.66 276.41 35.85 282.31 35.85 282.31C35.85 282.31 23.52 281.93 19.55 287.91Z" fill="white"/>
<path d="M388.66 291.69V305.39H2.66003V291.69C2.63038 291.143 2.71133 290.595 2.89804 290.08C3.08475 289.564 3.37339 289.092 3.74673 288.69C4.12008 288.289 4.57046 287.967 5.071 287.744C5.57154 287.52 6.11197 287.4 6.66003 287.39H384.62C385.171 287.395 385.716 287.511 386.221 287.732C386.727 287.953 387.182 288.274 387.559 288.676C387.937 289.078 388.229 289.552 388.418 290.07C388.608 290.588 388.69 291.139 388.66 291.69Z" fill="#263238"/>
<path d="M48.66 287.39H24.66V305.39H48.66V287.39Z" fill="#4B46EC"/>
<path d="M93.66 287.39H70.66V305.39H93.66V287.39Z" fill="#4B46EC"/>
<path d="M139.66 287.39H115.66V305.39H139.66V287.39Z" fill="#4B46EC"/>
<path d="M184.66 287.39H161.66V305.39H184.66V287.39Z" fill="#4B46EC"/>
<path d="M229.66 287.39H206.66V305.39H229.66V287.39Z" fill="#4B46EC"/>
<path d="M275.66 287.39H251.66V305.39H275.66V287.39Z" fill="#4B46EC"/>
<path d="M320.66 287.39H297.66V305.39H320.66V287.39Z" fill="#4B46EC"/>
<path d="M366.66 287.39H342.66V305.39H366.66V287.39Z" fill="#4B46EC"/>
<g opacity="0.6">
<path opacity="0.6" d="M48.66 287.39H24.66V305.39H48.66V287.39Z" fill="white"/>
<path opacity="0.6" d="M93.66 287.39H70.66V305.39H93.66V287.39Z" fill="white"/>
<path opacity="0.6" d="M139.66 287.39H115.66V305.39H139.66V287.39Z" fill="white"/>
<path opacity="0.6" d="M184.66 287.39H161.66V305.39H184.66V287.39Z" fill="white"/>
<path opacity="0.6" d="M229.66 287.39H206.66V305.39H229.66V287.39Z" fill="white"/>
<path opacity="0.6" d="M275.66 287.39H251.66V305.39H275.66V287.39Z" fill="white"/>
<path opacity="0.6" d="M320.66 287.39H297.66V305.39H320.66V287.39Z" fill="white"/>
<path opacity="0.6" d="M366.66 287.39H342.66V305.39H366.66V287.39Z" fill="white"/>
</g>
<path opacity="0.1" d="M388.66 291.69V305.39H2.66003V291.69C2.63038 291.143 2.71133 290.595 2.89804 290.08C3.08475 289.564 3.37339 289.092 3.74673 288.69C4.12008 288.289 4.57046 287.967 5.071 287.744C5.57154 287.52 6.11197 287.4 6.66003 287.39H384.62C385.171 287.395 385.716 287.511 386.221 287.732C386.727 287.953 387.182 288.274 387.559 288.676C387.937 289.078 388.229 289.552 388.418 290.07C388.608 290.588 388.69 291.139 388.66 291.69Z" fill="white"/>
<path d="M65.6399 154.94C65.6399 154.94 73.4899 136.12 83.2799 122.54L81.4599 120.3C81.4599 120.3 68.9999 136.69 61.8099 155.12L65.6399 154.94Z" fill="black"/>
<path d="M127.24 125.7C127.255 126.508 127.069 127.306 126.699 128.024C126.33 128.743 125.787 129.358 125.121 129.815C124.455 130.272 123.686 130.556 122.883 130.642C122.08 130.729 121.268 130.615 120.52 130.31C119.505 129.91 118.609 129.256 117.92 128.41C115.63 125.68 113.63 113.19 112.53 104.96C111.97 100.67 111.64 97.53 111.64 97.53L114.76 88.82C117.86 89.7 127.38 120.82 127.24 125.7Z" fill="#4B46EC"/>
<path opacity="0.2" d="M120.52 130.31C119.505 129.91 118.609 129.256 117.92 128.41C115.63 125.68 113.63 113.19 112.53 104.96C113.277 102.58 114.685 100.461 116.59 98.85C116.59 98.85 127.78 122.17 120.52 130.31Z" fill="black"/>
<path d="M111.1 65.17C111.1 65.17 117.1 75.25 115.72 79.33C115.401 80.4572 114.73 81.4531 113.806 82.1726C112.881 82.8921 111.751 83.2976 110.58 83.33C110.58 83.33 112.68 81.82 111.58 78.62C111.58 78.62 111.41 82.69 104.18 85.19C96.9499 87.69 84.51 88.09 82.96 82.11C82.96 82.11 82.0699 84.42 83.2899 85.84C83.2899 85.84 77.7299 84.84 76.2899 81.77C74.2099 77.14 79.03 66.6 79.03 66.6C79.03 66.6 74.5299 51 93.8999 46.13C93.8999 46.13 101.54 52.35 105.35 52.46C109.16 52.57 114.91 59.79 111.1 65.17Z" fill="#263238"/>
<path d="M103.69 86.93L85.9 85.38L79.67 122.54H117.93L103.69 86.93Z" fill="#4B46EC"/>
<path opacity="0.2" d="M103.69 86.93L85.9 85.38L79.67 122.54H117.93L103.69 86.93Z" fill="black"/>
<path d="M90.52 186.94C89.2 190.43 87.99 193.94 86.89 197.44C81.34 215.02 78.49 235.91 78.49 235.91C63.63 265.91 53.2 311.08 53.2 311.08L58.7 312.92L94.83 232.59L105.56 205L90.52 186.94Z" fill="#EEC1BB"/>
<path d="M53 306.89C53.33 306.24 61.13 310.66 61.13 310.66C61.13 310.66 63.64 318.11 67.9 321.57C72.16 325.03 68.07 326.62 62.7 324.01L49.39 317.55C45.54 315.7 49.51 313.6 53 306.89Z" fill="#263238"/>
<path d="M61.4999 312.14C61.4999 312.14 61.4999 312.09 61.4999 312.06C61.4956 312.034 61.4956 312.007 61.4999 311.98V311.98C61.4951 311.954 61.4951 311.926 61.4999 311.9V311.9L61.5599 311.82C61.6399 311.74 63.2199 310.21 64.5599 310.28C64.7553 310.295 64.9453 310.35 65.1177 310.443C65.29 310.536 65.4407 310.665 65.5599 310.82C65.6884 310.933 65.7772 311.085 65.8132 311.252C65.8492 311.419 65.8305 311.594 65.7599 311.75C65.5299 312.16 64.7599 312.31 63.9299 312.34C64.5885 312.53 65.1807 312.901 65.6399 313.41C65.7177 313.519 65.7728 313.642 65.802 313.773C65.8312 313.903 65.8339 314.038 65.8099 314.17C65.6899 314.7 65.4099 314.88 65.1899 314.93C64.914 314.973 64.6316 314.92 64.3899 314.78C63.2772 314.079 62.2985 313.185 61.4999 312.14V312.14ZM62.2999 312.36C63.2399 313.44 64.4999 314.6 65.0299 314.47C65.0299 314.47 65.2199 314.47 65.2899 314.07C65.3039 314.002 65.3031 313.933 65.2875 313.865C65.272 313.798 65.2421 313.735 65.1999 313.68C64.9693 313.4 64.6742 313.181 64.3399 313.04C63.6841 312.746 63.0008 312.519 62.2999 312.36V312.36ZM64.4599 310.75C63.6254 310.856 62.847 311.228 62.2399 311.81C63.6499 311.94 65.1099 311.87 65.2999 311.52C65.3599 311.41 65.2299 311.22 65.1499 311.11C65.0606 310.997 64.9481 310.905 64.8199 310.84C64.7062 310.789 64.5843 310.759 64.4599 310.75V310.75Z" fill="#4B46EC"/>
<path d="M114.57 186.74C112.992 197.146 110.113 207.312 106 217C101.52 227.41 96.5699 235.07 92.9999 243C86.6399 257 70.1899 290.21 70.1899 290.21L60.1899 281.9C60.1899 281.9 76.7599 239.57 77.9499 231.26C78.7199 225.88 79.4599 196.95 79.8899 177.26C80.1199 166.51 80.2599 158.5 80.2599 158.5L111.71 133.39C116.366 150.78 117.341 168.951 114.57 186.74V186.74Z" fill="#4B46EC"/>
<path opacity="0.2" d="M106 217C101.52 227.41 96.5699 235.07 92.9999 243C86.6399 257 70.1899 290.21 70.1899 290.21L60.1899 281.9C60.1899 281.9 76.7599 239.57 77.9499 231.26C78.7199 225.88 79.4599 196.95 79.8899 177.26L89.1999 157.71L101.27 162.56L97.3299 177.72L106 217Z" fill="black"/>
<path opacity="0.4" d="M114.57 186.74C112.992 197.146 110.113 207.312 106 217C101.52 227.41 96.5699 235.07 92.9999 243C86.6399 257 70.1899 290.21 70.1899 290.21L60.1899 281.9C60.1899 281.9 76.7599 239.57 77.9499 231.26C78.7199 225.88 79.4599 196.95 79.8899 177.26C80.1199 166.51 80.2599 158.5 80.2599 158.5L111.71 133.39C116.366 150.78 117.341 168.951 114.57 186.74V186.74Z" fill="white"/>
<path d="M94.45 249C102.74 280.57 118.32 318 118.32 318L123.72 315.9L107.9 249H94.45Z" fill="#EEC1BB"/>
<path d="M115.46 315C115.31 314.29 124.14 312.71 124.14 312.71C124.14 312.71 130.82 316.84 136.31 316.8C141.8 316.76 139.67 320.57 133.86 322L119.5 325.5C115.37 326.51 117.09 322.37 115.46 315Z" fill="#263238"/>
<path d="M125.38 313.59H125.3L125.24 313.54C125.234 313.517 125.234 313.493 125.24 313.47V313.47C125.23 313.437 125.23 313.403 125.24 313.37C125.24 313.26 125.49 311.07 126.54 310.29C126.701 310.173 126.885 310.091 127.079 310.05C127.274 310.009 127.475 310.009 127.67 310.05C128.11 310.14 128.37 310.34 128.42 310.64C128.51 311.1 128 311.71 127.42 312.26C128.049 311.989 128.742 311.899 129.42 312C129.548 312.034 129.667 312.093 129.772 312.174C129.877 312.255 129.964 312.355 130.03 312.47C130.134 312.616 130.19 312.791 130.19 312.97C130.19 313.149 130.134 313.324 130.03 313.47C129.847 313.681 129.596 313.823 129.32 313.87C128 314.008 126.667 313.913 125.38 313.59V313.59ZM126.14 313.25C127.56 313.48 129.27 313.57 129.59 313.13C129.59 313.13 129.71 312.98 129.54 312.66C129.506 312.599 129.46 312.545 129.405 312.502C129.35 312.46 129.287 312.428 129.22 312.41C128.86 312.343 128.49 312.364 128.14 312.47C127.45 312.666 126.781 312.928 126.14 313.25ZM126.78 310.63C126.213 311.248 125.862 312.035 125.78 312.87C126.94 312.06 128.02 311.08 127.95 310.69C127.95 310.56 127.7 310.5 127.57 310.47C127.428 310.439 127.282 310.439 127.14 310.47C127.012 310.504 126.891 310.558 126.78 310.63V310.63Z" fill="#4B46EC"/>
<path d="M78.37 130C78.37 130 66.18 155.71 70.48 180C74.78 204.29 87.81 235.41 91.32 243C94.83 250.59 107.93 295.29 107.93 295.29L119.27 291.6C119.27 291.6 109.14 247.1 106 231.64C104.5 224.33 91.62 172.3 91.62 172.3C91.62 172.3 113.68 155.91 112.12 130.3L78.37 130Z" fill="#4B46EC"/>
<path opacity="0.4" d="M78.37 130C78.37 130 66.18 155.71 70.48 180C74.78 204.29 87.81 235.41 91.32 243C94.83 250.59 107.93 295.29 107.93 295.29L119.27 291.6C119.27 291.6 109.14 247.1 106 231.64C104.5 224.33 91.62 172.3 91.62 172.3C91.62 172.3 113.68 155.91 112.12 130.3L78.37 130Z" fill="white"/>
<path d="M90.4299 135.76L108.05 136.03L108.25 130.73L90.6099 130.92L90.4299 135.76Z" fill="black"/>
<path d="M109.81 130.71L109.6 136.05L111.38 136.08L111.87 130.69L109.81 130.71Z" fill="black"/>
<path d="M89.06 130.94L79.71 131.03L79.3 135.59L88.87 135.74L89.06 130.94Z" fill="black"/>
<path d="M104.14 131.11H97.28V136.31H104.14V131.11Z" fill="white"/>
<path d="M74.1199 89.35C74.1199 89.35 96.28 84.47 114.57 91.59C115.185 104.684 114.279 117.805 111.87 130.69L78.02 130.93C78.02 130.93 79.85 121.72 72.33 103.93L74.1199 89.35Z" fill="#263238"/>
<path d="M98.89 94.57C91.11 92.66 89.12 89.01 89.12 89.01C92.7 86.34 92.63 81.78 92.12 78.88C91.9716 77.9653 91.7441 77.0653 91.44 76.19L100.75 79.05C100.375 80.3611 100.098 81.6981 99.92 83.05C99.7738 84.0434 99.7503 85.0509 99.85 86.05C100.17 88.96 101.79 89.19 101.79 89.19C103.1 92.44 98.89 94.57 98.89 94.57Z" fill="#EEC1BB"/>
<path opacity="0.2" d="M99.9199 83C99.7737 83.9934 99.7502 85.0009 99.8499 86C96.1399 85.07 93.6199 81.72 92.1199 78.89C91.9716 77.9753 91.7441 77.0753 91.4399 76.2L100.75 79.06C100.378 80.3515 100.101 81.6683 99.9199 83Z" fill="black"/>
<path d="M98.09 52.78C106.42 52.97 108.99 57.49 109.41 66.08C109.93 76.82 107.41 84.39 97.02 81.86C83 78.43 84.26 52.47 98.09 52.78Z" fill="#EEC1BB"/>
<path d="M104 65.5C104.635 66.7574 105.421 67.9328 106.34 69C106.09 69.3387 105.751 69.6018 105.361 69.7606C104.972 69.9194 104.546 69.9676 104.13 69.9L104 65.5Z" fill="#D4827D"/>
<path d="M99 64.7C99 65.38 98.63 65.94 98.17 65.94C97.71 65.94 97.35 65.38 97.35 64.7C97.35 64.02 97.71 63.46 98.17 63.46C98.63 63.46 99 64 99 64.7Z" fill="#263238"/>
<path d="M97.9399 63.49L99.4299 62.91C99.4299 62.91 98.6899 64.16 97.9399 63.49Z" fill="#263238"/>
<path d="M107.46 64.55C107.46 65.23 107.1 65.79 106.64 65.79C106.18 65.79 105.81 65.24 105.81 64.55C105.81 63.86 106.18 63.31 106.64 63.31C107.1 63.31 107.46 63.87 107.46 64.55Z" fill="#263238"/>
<path d="M106.45 63.35L107.93 62.76C107.93 62.76 107.19 64 106.45 63.35Z" fill="#263238"/>
<path d="M95.37 60.48C95.3276 60.481 95.2854 60.4736 95.2459 60.4581C95.2065 60.4427 95.1704 60.4195 95.14 60.39C95.107 60.3583 95.0808 60.3203 95.0629 60.2782C95.045 60.2361 95.0357 60.1908 95.0357 60.145C95.0357 60.0993 95.045 60.054 95.0629 60.0119C95.0808 59.9698 95.107 59.9317 95.14 59.9C95.6558 59.3816 96.2876 58.9933 96.9831 58.7673C97.6786 58.5412 98.4179 58.4839 99.14 58.6C99.2328 58.6146 99.316 58.6655 99.3714 58.7414C99.4267 58.8174 99.4496 58.9122 99.435 59.005C99.4204 59.0978 99.3695 59.1811 99.2936 59.2364C99.2176 59.2917 99.1228 59.3146 99.03 59.3C98.437 59.2069 97.8307 59.2485 97.256 59.4216C96.6813 59.5947 96.1529 59.8949 95.71 60.3C95.6805 60.3628 95.6314 60.4143 95.57 60.4468C95.5087 60.4793 95.4385 60.4909 95.37 60.48V60.48Z" fill="#263238"/>
<path d="M108.37 59.85C108.294 59.85 108.221 59.8254 108.16 59.78C107.747 59.4418 107.262 59.2021 106.742 59.0791C106.222 58.9561 105.681 58.953 105.16 59.07C105.071 59.0989 104.974 59.0922 104.89 59.0511C104.806 59.0101 104.742 58.9379 104.71 58.85C104.694 58.8061 104.688 58.7594 104.69 58.7128C104.693 58.6662 104.705 58.6206 104.725 58.5787C104.746 58.5367 104.774 58.4993 104.81 58.4687C104.845 58.438 104.886 58.4146 104.93 58.4C105.554 58.2452 106.206 58.2368 106.834 58.3756C107.462 58.5144 108.049 58.7965 108.55 59.2C108.628 59.2545 108.681 59.3377 108.698 59.4314C108.715 59.5251 108.694 59.6217 108.64 59.7C108.608 59.7425 108.567 59.7778 108.521 59.8037C108.474 59.8295 108.423 59.8453 108.37 59.85V59.85Z" fill="#263238"/>
<path d="M102.88 73.14C102.477 74.0709 102.143 75.0302 101.88 76.01C101.7 76.01 101.52 76.01 101.35 75.95C98.93 75.65 97.9099 74.71 97.5099 73.76C97.3179 73.2953 97.2457 72.7899 97.3 72.29C97.3208 72.0072 97.378 71.7283 97.4699 71.46C98.8834 72.308 100.462 72.8434 102.1 73.03C102.56 73.11 102.88 73.14 102.88 73.14Z" fill="#263238"/>
<path d="M102.06 73L101.73 73.84C99.4499 73.55 97.8899 73.04 97.2599 72.26C97.2808 71.9772 97.338 71.6982 97.4299 71.43C98.8434 72.278 100.422 72.8133 102.06 73Z" fill="white"/>
<path d="M101.31 76C98.89 75.7 97.87 74.76 97.47 73.81C98.3843 73.9447 99.2677 74.2392 100.08 74.68C100.616 74.9834 101.045 75.4442 101.31 76V76Z" fill="#DE5753"/>
<path d="M88.67 66.61C88.67 66.61 92.72 59.86 92.25 54.56C92.25 54.56 108.9 48.2 109.34 64.96C109.34 64.96 111.29 50.13 96.98 49.47C82.67 48.81 82.26 69.76 89.51 76.16C89.51 76.16 86.17 70.83 88.67 66.61Z" fill="#263238"/>
<path d="M90 68.4C89.9732 67.9217 89.8522 67.4535 89.6441 67.022C89.4359 66.5906 89.1447 66.2044 88.787 65.8858C88.4293 65.5671 88.0123 65.3222 87.5598 65.1651C87.1072 65.0079 86.6281 64.9416 86.1499 64.97C83.5599 65.19 82.21 70.46 88.6 71.88C89.51 72.08 90.05 71.2 90 68.4Z" fill="#EEC1BB"/>
<path d="M89.22 48.71C89.22 48.71 93.84 45.2 97.88 45.34C101.92 45.48 103.27 47.83 103.27 47.83C103.969 47.3448 104.774 47.0343 105.618 46.9247C106.462 46.815 107.32 46.9095 108.12 47.2C111.04 48.2 114.73 53.06 115.21 59.88C115.69 66.7 110.21 68.2 110.21 68.2C110.21 68.2 112.9 56.53 103.28 54.13C103.28 54.13 99.7 52.41 97.76 55.31C95.82 58.21 97.09 66.09 89.08 64.24C81.07 62.39 84.71 52.38 89.22 48.71Z" fill="#263238"/>
<path d="M74.12 89.35C68.05 91.24 64.25 119.09 62.34 124.55C60.91 128.64 47.13 154.29 47.13 154.29C47.13 154.29 34.45 157.82 35.64 159.8C36.83 161.78 40.19 164.94 42.17 165.34C44.15 165.74 50.28 160.79 50.87 159.4C51.2711 158.177 51.4737 156.897 51.47 155.61C51.47 155.61 66.18 133.42 68.02 128.75C69.41 125.22 78.53 101.68 78.53 101.68C78.53 101.68 80.31 98.9 78.53 94.57C76.75 90.24 74.12 89.35 74.12 89.35Z" fill="#EEC1BB"/>
<path d="M104.92 66.67L93.9199 68.84C93.9199 68.84 95.0999 74.28 92.3099 77.78C94.7422 80.0069 97.6856 81.6005 100.88 82.42C100.88 82.42 108.56 82.42 110.47 75.42C111.28 72.42 109.62 68.84 109.62 68.84L104.92 66.67Z" fill="#4B46EC"/>
<path opacity="0.7" d="M92.2599 77.78C94.6903 80.0096 97.6344 81.6036 100.83 82.42C101.165 82.4127 101.498 82.3859 101.83 82.34C103.97 82.07 108.94 80.85 110.42 75.34C110.801 73.366 110.603 71.3241 109.85 69.46C109.771 69.2212 109.677 68.9874 109.57 68.76L104.92 66.62L93.92 68.8C93.92 68.8 94.9999 74.27 92.2599 77.78Z" fill="white"/>
<path d="M92.9299 77.72C95.6764 79.6515 98.6698 81.2054 101.83 82.34C103.97 82.07 108.94 80.85 110.42 75.34C110.801 73.3661 110.603 71.3241 109.85 69.46L105.24 67.09L94.4499 69.19C94.6699 70.65 95.0499 74.7 92.9299 77.72Z" fill="white"/>
<path opacity="0.2" d="M100.83 82.42C101.165 82.4127 101.498 82.3859 101.83 82.34C103.97 82.07 108.94 80.85 110.42 75.34C110.801 73.366 110.603 71.3241 109.85 69.46C109.771 69.2212 109.677 68.9874 109.57 68.76L104.92 66.62C104.92 66.62 111.31 77.81 100.83 82.42Z" fill="black"/>
<path d="M95.34 70C95.3791 70.0117 95.4208 70.0117 95.46 70C95.4839 69.9776 95.5029 69.9504 95.516 69.9203C95.529 69.8902 95.5357 69.8578 95.5357 69.825C95.5357 69.7922 95.529 69.7598 95.516 69.7297C95.5029 69.6996 95.4839 69.6724 95.46 69.65C95.39 69.56 93.69 67.42 88.77 65.43C88.7089 65.4069 88.6413 65.4087 88.5815 65.4348C88.5217 65.461 88.4745 65.5095 88.45 65.57C88.437 65.6008 88.4304 65.6339 88.4304 65.6673C88.4305 65.7007 88.4372 65.7338 88.4503 65.7646C88.4633 65.7953 88.4824 65.8232 88.5064 65.8464C88.5304 65.8697 88.5588 65.8879 88.59 65.9C93.36 67.83 95.05 69.9 95.07 69.96C95.1048 69.9946 95.1498 70.0172 95.1984 70.0244C95.247 70.0316 95.2966 70.023 95.34 70Z" fill="#4B46EC"/>
<path d="M93.75 78.55C93.8065 78.5385 93.8573 78.5079 93.8938 78.4632C93.9303 78.4186 93.9502 78.3627 93.9502 78.305C93.9502 78.2473 93.9303 78.1915 93.8938 78.1468C93.8573 78.1022 93.8065 78.0715 93.75 78.06C93.75 78.06 89.96 77.13 87.5 71.73C87.4721 71.669 87.4212 71.6216 87.3584 71.5981C87.2955 71.5747 87.226 71.5772 87.165 71.605C87.104 71.6329 87.0566 71.6838 87.0331 71.7466C87.0097 71.8095 87.0121 71.879 87.04 71.94C89.62 77.58 93.47 78.51 93.64 78.55H93.75Z" fill="#4B46EC"/>
<g opacity="0.8">
<path opacity="0.8" d="M95.34 70C95.3791 70.0117 95.4208 70.0117 95.46 70C95.4839 69.9776 95.5029 69.9504 95.516 69.9203C95.529 69.8902 95.5357 69.8578 95.5357 69.825C95.5357 69.7922 95.529 69.7598 95.516 69.7297C95.5029 69.6996 95.4839 69.6724 95.46 69.65C95.39 69.56 93.69 67.42 88.77 65.43C88.7089 65.4069 88.6413 65.4087 88.5815 65.4348C88.5217 65.461 88.4745 65.5095 88.45 65.57C88.437 65.6008 88.4304 65.6339 88.4304 65.6673C88.4305 65.7007 88.4372 65.7338 88.4503 65.7646C88.4633 65.7953 88.4824 65.8232 88.5064 65.8464C88.5304 65.8697 88.5588 65.8879 88.59 65.9C93.36 67.83 95.05 69.9 95.07 69.96C95.1048 69.9946 95.1498 70.0172 95.1984 70.0244C95.247 70.0316 95.2966 70.023 95.34 70Z" fill="white"/>
</g>
<g opacity="0.8">
<path opacity="0.8" d="M93.75 78.55C93.8065 78.5385 93.8573 78.5079 93.8938 78.4632C93.9303 78.4186 93.9502 78.3627 93.9502 78.305C93.9502 78.2473 93.9303 78.1915 93.8938 78.1468C93.8573 78.1022 93.8065 78.0715 93.75 78.06C93.75 78.06 89.96 77.13 87.5 71.73C87.4721 71.669 87.4212 71.6216 87.3584 71.5981C87.2955 71.5747 87.226 71.5772 87.165 71.605C87.104 71.6329 87.0566 71.6838 87.0331 71.7466C87.0097 71.8095 87.0121 71.879 87.04 71.94C89.62 77.58 93.47 78.51 93.64 78.55H93.75Z" fill="white"/>
</g>
<g opacity="0.2">
<path opacity="0.2" d="M98.09 75L97.83 75.72L98.75 75.97L98.69 76.14L97.76 75.89C97.67 76.15 97.57 76.41 97.47 76.67L97.29 76.62C97.51 76 97.74 75.39 97.97 74.78L99.2 75.1L99.14 75.27C98.7933 75.1567 98.4433 75.0667 98.09 75Z" fill="black"/>
<path opacity="0.2" d="M99.73 75.35L99.46 76.08C99.77 76.14 100.09 76.21 100.41 76.26L100.35 76.43L99.35 76.25L99.07 77.03H98.87C99.1 76.41 99.33 75.8 99.55 75.18C99.97 75.28 100.39 75.36 100.82 75.43L100.76 75.6C100.44 75.5 100.08 75.43 99.73 75.35Z" fill="black"/>
<path opacity="0.2" d="M102.52 76.26C102.444 76.4544 102.303 76.6159 102.12 76.7164C101.937 76.817 101.725 76.8501 101.52 76.81L101.01 76.7401C100.94 76.9401 100.86 77.1301 100.79 77.3201H100.59L101.28 75.48L101.98 75.58C102.45 75.61 102.66 75.87 102.52 76.26ZM102.31 76.26C102.42 75.97 102.31 75.7801 101.9 75.7401L101.4 75.67C101.29 75.98 101.17 76.28 101.06 76.59L101.56 76.66C101.715 76.6933 101.876 76.669 102.014 76.5917C102.152 76.5144 102.258 76.3894 102.31 76.2401V76.26Z" fill="black"/>
<path opacity="0.2" d="M103.73 77.4L103.66 77.5701C103.21 77.5701 102.76 77.5701 102.31 77.4901L102.36 77.36L103.44 76.6601C103.73 76.4701 103.82 76.35 103.87 76.22C103.92 76.09 103.87 75.8701 103.54 75.8501C103.326 75.8351 103.114 75.8953 102.94 76.0201L102.84 75.9C103.065 75.7353 103.342 75.6572 103.62 75.68C104.02 75.68 104.19 75.9001 104.08 76.2101C103.97 76.4504 103.784 76.6474 103.55 76.7701L102.66 77.3501L103.73 77.4Z" fill="black"/>
</g>
<path d="M120.13 288.65L105.96 293.83L108.13 297.26L120.13 292.96V288.65Z" fill="#4B46EC"/>
<path opacity="0.8" d="M120.13 288.65L105.96 293.83L108.13 297.26L120.13 292.96V288.65Z" fill="white"/>
<path d="M72.3299 289.25L59.7999 280.83L58.3099 284.6L68.8399 291.79L72.3299 289.25Z" fill="#4B46EC"/>
<path opacity="0.8" d="M72.3299 289.25L59.7999 280.83L58.3099 284.6L68.8399 291.79L72.3299 289.25Z" fill="white"/>
<path d="M72.32 106.05C73.21 115.55 74.84 123.92 74.84 123.92L77.39 124.69L84.18 126.69L92.84 92.2L85.9 85.34L84.18 86.89C71.98 87.89 71.87 91.14 71.87 91.26C71.6592 96.1944 71.8096 101.138 72.32 106.05Z" fill="#4B46EC"/>
<path d="M85.9 85.38L83.28 87.01L86.51 95.54L92.84 92.24L85.9 85.38Z" fill="#4B46EC"/>
<path opacity="0.2" d="M85.9 85.38L83.28 87.01L86.51 95.54L92.84 92.24L85.9 85.38Z" fill="white"/>
<path opacity="0.2" d="M72.3199 106.05C73.2099 115.55 74.8399 123.92 74.8399 123.92L77.3899 124.69C80.9999 115 76.2799 102.38 76.2799 102.38L72.3199 106.05Z" fill="black"/>
<path d="M73.23 79.86C73.1542 79.8594 73.0806 79.8349 73.0195 79.7901C72.9585 79.7452 72.9132 79.6822 72.89 79.61C71.61 75.22 74.36 71.87 76.79 68.91C77.5016 68.0997 78.1692 67.2519 78.79 66.37C81.06 62.92 82.29 57.17 82.3 57.11C82.3095 57.0645 82.3279 57.0214 82.3542 56.9831C82.3806 56.9448 82.4143 56.9121 82.4534 56.887C82.4925 56.8618 82.5362 56.8447 82.582 56.8367C82.6277 56.8286 82.6747 56.8297 82.72 56.84C82.7655 56.8495 82.8087 56.8679 82.847 56.8943C82.8853 56.9206 82.9179 56.9543 82.9431 56.9934C82.9682 57.0325 82.9853 57.0762 82.9933 57.122C83.0014 57.1678 83.0003 57.2147 82.99 57.26C82.99 57.5 81.72 63.19 79.38 66.76C78.7582 67.6603 78.0907 68.5281 77.38 69.36C75.06 72.18 72.44 75.36 73.61 79.36C73.6237 79.4047 73.6284 79.4516 73.6237 79.4981C73.6191 79.5445 73.6051 79.5896 73.5828 79.6306C73.5604 79.6716 73.5301 79.7077 73.4935 79.7368C73.457 79.7659 73.415 79.7874 73.37 79.8L73.23 79.86Z" fill="#263238"/>
<path d="M72.3299 90.35C72.3299 90.35 67.4699 94.42 62.3299 120.56L47.6899 150.33L54.8099 153.2L71.7099 125.51L75.4499 112.51C75.4499 112.51 76.3099 103.96 75.4499 98.01C74.5899 92.06 72.3299 90.35 72.3299 90.35Z" fill="#4B46EC"/>
<path d="M104.47 87.72L103.69 91.02L114.76 125.51L118.1 124.39C117.935 112.463 116.818 100.569 114.76 88.82L104.47 87.72Z" fill="#4B46EC"/>
<path d="M103.69 86.93L103.16 92.21L107.47 94.57L107.96 87.72L103.69 86.93Z" fill="#4B46EC"/>
<path opacity="0.2" d="M103.69 86.93L103.16 92.21L107.47 94.57L107.96 87.72L103.69 86.93Z" fill="white"/>
<path d="M56.57 152.34L47.74 148.25L46.16 151.29L54.46 154.94L56.57 152.34Z" fill="#4B46EC"/>
<path opacity="0.2" d="M56.57 152.34L47.74 148.25L46.16 151.29L54.46 154.94L56.57 152.34Z" fill="white"/>
<path d="M111.64 88.27C111.64 88.27 109.64 129.75 83.98 155.12L88.06 157.66C88.06 157.66 112.36 132.16 113.43 88.66L111.64 88.27Z" fill="black"/>
<path d="M88.06 157.66C88.06 157.66 87.64 178.74 83.06 183.41C78.48 188.08 58.86 188.48 55.67 182.35C54.15 179.42 54.25 173.02 55.67 166.95C57.22 160.31 60.34 154.06 64.61 153.2C64.61 153.2 74.16 159.99 84.01 155.12C84.4421 154.938 84.9117 154.863 85.3792 154.9C85.8466 154.938 86.298 155.088 86.6953 155.337C87.0926 155.586 87.424 155.927 87.6615 156.332C87.8991 156.736 88.0357 157.192 88.06 157.66Z" fill="#263238"/>
<path opacity="0.2" d="M84 155.12C79.8 156.98 76.73 169.62 71.32 169.76C65.91 169.9 55.64 167 55.64 167C57.19 160.36 60.31 154.11 64.58 153.25C64.58 153.2 74.13 160 84 155.12Z" fill="white"/>
<path d="M61.22 166.1L63.46 166.45C63.46 166.45 62.27 172.12 61.22 173.77L58.49 172.77C58.49 172.77 61.09 168.91 61.22 166.1Z" fill="black"/>
<path d="M61.9999 172.22H61.8799L59.0199 171.22C58.9197 171.181 58.8377 171.106 58.7899 171.01C58.7701 170.962 58.7599 170.911 58.7599 170.86C58.7599 170.808 58.7701 170.758 58.7899 170.71L59.7899 168.37C59.825 168.289 59.8871 168.223 59.9655 168.183C60.0439 168.143 60.1339 168.131 60.2199 168.15L63.0699 168.85C63.1205 168.861 63.1682 168.883 63.2096 168.914C63.251 168.945 63.2852 168.984 63.3099 169.03C63.3324 169.079 63.344 169.131 63.344 169.185C63.344 169.239 63.3324 169.291 63.3099 169.34L62.3099 171.96C62.287 172.028 62.246 172.087 62.1913 172.133C62.1366 172.179 62.0705 172.209 61.9999 172.22ZM59.6399 170.64L61.7799 171.37L62.4699 169.48L60.3499 168.97L59.6399 170.64Z" fill="white"/>
<path d="M121.32 97.28C122.71 99.33 131.5 118.46 124.86 122.07C118.22 125.68 120.11 106.84 118.25 102.07C116.39 97.3 121.32 97.28 121.32 97.28Z" fill="#EEC1BB"/>
<path d="M118.87 106.85L127.26 105.28C127.26 105.28 131.73 128.69 123.34 130.28C116.9 131.46 118.87 106.85 118.87 106.85Z" fill="#4B46EC"/>
<path d="M118.03 106.23L118.01 108.27L128.76 107L128.63 104.49L118.03 106.23Z" fill="#4B46EC"/>
<path opacity="0.2" d="M118.03 106.23L118.01 108.27L128.76 107L128.63 104.49L118.03 106.23Z" fill="white"/>
<path d="M110.08 94.41C110.5 93.02 116.72 95.14 119.79 96.06C122.86 96.98 121.43 100.28 121.43 100.28C121.43 100.28 122.21 104.16 118.53 103.47C114.85 102.78 110.9 102.18 110.71 101.34C110.52 100.5 109.74 95.56 110.08 94.41Z" fill="#EEC1BB"/>
<path d="M250.74 112.62L158.67 75.11H110.91V74.61L158.81 74.63L250.93 112.15L250.74 112.62Z" fill="#4B46EC"/>
<path d="M306.834 168.391C337.768 137.458 337.768 87.3046 306.834 56.3712C275.901 25.4378 225.748 25.4378 194.814 56.3712C163.881 87.3046 163.881 137.458 194.814 168.391C225.748 199.324 275.901 199.324 306.834 168.391Z" fill="#4B46EC"/>
<path opacity="0.7" d="M306.834 168.391C337.768 137.458 337.768 87.3046 306.834 56.3712C275.901 25.4378 225.748 25.4378 194.814 56.3712C163.881 87.3046 163.881 137.458 194.814 168.391C225.748 199.324 275.901 199.324 306.834 168.391Z" fill="white"/>
<path d="M225.44 152.29C228.84 166.73 241.67 167.59 241.67 167.59C241.67 167.59 235 161.7 240 151.14C240 151.14 239.19 165.14 263.1 176.14C267.154 177.985 271.327 179.558 275.59 180.85C275.84 180.93 276.1 181.02 276.37 181.08C279.417 182.013 282.543 182.83 285.75 183.53C303.269 174.892 316.998 160.109 324.32 142C325.32 139.6 326.14 137.14 326.87 134.61C328.528 128.888 329.535 122.998 329.87 117.05C329.95 115.67 329.99 114.29 330.01 112.92C330.01 110.97 329.96 109.05 329.84 107.13C328.632 88.6055 320.938 71.0983 308.11 57.68C306.121 55.5948 304.022 53.6186 301.82 51.76C299.24 53.24 296.32 54.85 293.27 56.39C285.19 60.47 276.15 64.13 270.16 63.82H270C257 62.9 234.8 85.71 246 105.4C246 105.4 244.14 107.93 241.52 111.88C234.78 122.11 223 141.88 225.44 152.29Z" fill="#4B46EC"/>
<path d="M269.3 189.43C274.979 188.071 280.489 186.086 285.73 183.51C292.456 180.198 298.681 175.952 304.22 170.9C304.918 168.295 305.797 165.742 306.85 163.26C307.648 161.312 308.553 159.409 309.56 157.56C310.56 155.78 311.2 154.76 311.2 154.76L307.27 155.05L305.95 155.14L302.51 155.38L300.51 155.54L277.82 157.18C277.947 160.28 277.967 163.103 277.88 165.65C277.88 166.27 277.88 166.87 277.82 167.45V167.83C277.76 168.98 277.67 170.06 277.56 171.09C277.285 174.402 276.613 177.668 275.56 180.82C275.56 180.91 275.5 181 275.46 181.09C273.65 186.27 271.19 188.48 269.3 189.43Z" fill="#4B46EC"/>
<path opacity="0.4" d="M269.3 189.43C274.979 188.071 280.489 186.086 285.73 183.51C292.456 180.198 298.681 175.952 304.22 170.9C304.918 168.295 305.797 165.742 306.85 163.26C307.648 161.312 308.553 159.409 309.56 157.56C310.56 155.78 311.2 154.76 311.2 154.76L307.27 155.05L305.95 155.14L302.51 155.38L300.51 155.54L277.82 157.18C277.947 160.28 277.967 163.103 277.88 165.65C277.88 166.27 277.88 166.87 277.82 167.45V167.83C277.76 168.98 277.67 170.06 277.56 171.09C277.285 174.402 276.613 177.668 275.56 180.82C275.56 180.91 275.5 181 275.46 181.09C273.65 186.27 271.19 188.48 269.3 189.43Z" fill="white"/>
<path opacity="0.2" d="M277.52 171.09C277.243 174.496 276.548 177.854 275.45 181.09C288.63 180.85 299.64 171.57 306.84 163.25C308.044 160.292 309.503 157.445 311.2 154.74L277.81 157.17C278.049 161.811 277.952 166.463 277.52 171.09Z" fill="black"/>
<path d="M294.7 67.4C266.14 65.24 255.8 79.83 251.48 109.1C246.09 145.67 252.27 172.41 288.56 167.26C337.85 160.25 342.11 71 294.7 67.4Z" fill="#4B46EC"/>
<path opacity="0.4" d="M294.7 67.4C266.14 65.24 255.8 79.83 251.48 109.1C246.09 145.67 252.27 172.41 288.56 167.26C337.85 160.25 342.11 71 294.7 67.4Z" fill="white"/>
<path d="M233.73 85.93C237.67 62.75 251.95 47.2 262.24 44.93C272.53 42.66 278.64 48.71 278.64 48.71C278.64 48.71 281.58 44.6 288.64 42.78C295.874 46.7164 302.45 51.757 308.13 57.72C320.958 71.1382 328.652 88.6455 329.86 107.17C329.98 109.09 330.04 111.01 330.03 112.96C330.03 114.33 329.97 115.71 329.89 117.09C329.555 123.038 328.548 128.928 326.89 134.65C326.16 137.18 325.3 139.65 324.34 142.04C322.086 145.171 319.364 147.936 316.27 150.24V150.24H316.21C317.066 149.081 317.857 147.876 318.58 146.63C319.883 144.434 321.007 142.137 321.94 139.76C322.485 138.368 322.949 136.946 323.33 135.5C324.77 130.09 325.11 123.82 322.33 117.83C322.33 117.83 322.01 117.14 321.48 115.92C321.43 115.79 321.36 115.66 321.31 115.52C321.11 115.04 320.88 114.52 320.65 113.91C320.19 112.76 319.65 111.38 319.1 109.84C294.05 111.57 300.42 86.39 294.95 76.11C291.4 69.44 285 68.82 280.76 69.28H280.71C279.488 69.4588 278.276 69.7024 277.08 70.01L276.52 70.19H276.25C272.527 71.2365 269.049 73.0132 266.018 75.4167C262.988 77.8202 260.466 80.8025 258.6 84.19C258.561 84.2375 258.53 84.2917 258.51 84.35C255.57 89.47 253.37 96.13 252.26 104.73V104.79C252.26 104.91 252.26 105.02 252.21 105.14C252.212 105.123 252.212 105.107 252.21 105.09V105.09C252.217 96.3508 254.039 87.7083 257.56 79.71C245 93.44 248 116.08 248 116.08C245.649 115.047 243.484 113.635 241.59 111.9C236.75 107.6 231.41 99.56 233.73 85.93Z" fill="#4B46EC"/>
<path d="M320.77 135.94C321.65 135.84 322.49 135.71 323.29 135.55L324.03 135.41C324.99 135.206 325.938 134.949 326.87 134.64C328.528 128.918 329.535 123.028 329.87 117.08C329.95 115.7 329.99 114.32 330.01 112.95C329.328 112.88 328.641 112.88 327.96 112.95C326.276 113.126 324.653 113.676 323.21 114.56C322.88 114.75 322.57 114.98 322.26 115.2C321.953 115.426 321.659 115.67 321.38 115.93C319.123 117.892 317.611 120.573 317.1 123.52C316 133.12 317.57 136.34 320.77 135.94Z" fill="#4B46EC"/>
<path opacity="0.4" d="M320.77 135.94C321.65 135.84 322.49 135.71 323.29 135.55L324.03 135.41C324.99 135.206 325.938 134.949 326.87 134.64C328.528 128.918 329.535 123.028 329.87 117.08C329.95 115.7 329.99 114.32 330.01 112.95C329.328 112.88 328.641 112.88 327.96 112.95C326.276 113.126 324.653 113.676 323.21 114.56C322.88 114.75 322.57 114.98 322.26 115.2C321.953 115.426 321.659 115.67 321.38 115.93C319.123 117.892 317.611 120.573 317.1 123.52C316 133.12 317.57 136.34 320.77 135.94Z" fill="white"/>
<path d="M266.66 112.63L303.72 123.78C303.72 123.78 297.87 141.97 306.24 154.89C297.165 161.698 286.552 166.163 275.34 167.89C275.34 167.89 249.06 165.28 244.91 140.59C243.13 130.07 250.02 118.39 250.02 118.39L266.66 112.63Z" fill="#4B46EC"/>
<path opacity="0.7" d="M306.24 154.89C297.169 161.704 286.554 166.17 275.34 167.89C274.2 167.753 273.068 167.553 271.95 167.29C264.71 165.62 248.13 159.79 244.89 140.59C243.6 132.88 246.89 124.59 248.81 120.68C249.171 119.894 249.572 119.126 250.01 118.38L266.65 112.61L303.73 123.8C303.73 123.8 297.89 142 306.24 154.89Z" fill="white"/>
<path d="M304 154.48C301 156.64 285.77 163.93 272 167.29C264.76 165.62 248.18 159.79 244.94 140.59C243.65 132.88 246.94 124.59 248.86 120.68L265.43 114.12L301.65 124.93C300.4 129.7 297.73 143.41 304 154.48Z" fill="white"/>
<path opacity="0.2" d="M275.34 167.89C274.2 167.753 273.068 167.553 271.95 167.29C264.71 165.62 248.13 159.79 244.89 140.59C243.6 132.88 246.89 124.59 248.81 120.68C249.171 119.894 249.572 119.126 250.01 118.38L266.65 112.61C266.65 112.61 241 148.6 275.34 167.89Z" fill="black"/>
<path d="M298.33 127.08C298.183 127.049 298.047 126.976 297.94 126.87C297.86 126.791 297.796 126.697 297.753 126.593C297.709 126.489 297.687 126.378 297.687 126.265C297.687 126.152 297.709 126.041 297.753 125.937C297.796 125.833 297.86 125.739 297.94 125.66C298.21 125.37 304.75 118.66 322.24 113.47C322.35 113.433 322.466 113.418 322.582 113.427C322.698 113.436 322.81 113.468 322.913 113.522C323.016 113.576 323.107 113.65 323.181 113.74C323.254 113.829 323.309 113.933 323.341 114.044C323.374 114.156 323.383 114.273 323.369 114.388C323.355 114.503 323.318 114.614 323.26 114.715C323.202 114.815 323.124 114.903 323.032 114.973C322.939 115.042 322.833 115.092 322.72 115.12C305.72 120.12 299.25 126.77 299.18 126.84C299.074 126.954 298.938 127.037 298.789 127.079C298.639 127.121 298.48 127.122 298.33 127.08Z" fill="#4B46EC"/>
<path d="M300.86 157C300.664 156.954 300.49 156.84 300.37 156.679C300.249 156.517 300.189 156.319 300.199 156.117C300.21 155.916 300.291 155.725 300.428 155.578C300.566 155.43 300.75 155.335 300.95 155.31C301.08 155.31 314.21 153.41 324.45 135.77C324.506 135.672 324.582 135.586 324.671 135.518C324.761 135.449 324.863 135.398 324.972 135.369C325.081 135.34 325.195 135.332 325.307 135.347C325.419 135.362 325.527 135.399 325.625 135.455C325.723 135.512 325.809 135.587 325.877 135.676C325.946 135.766 325.997 135.868 326.026 135.977C326.055 136.086 326.063 136.2 326.048 136.312C326.033 136.424 325.996 136.532 325.94 136.63C315.24 155.09 301.73 157 301.16 157C301.061 157.02 300.959 157.02 300.86 157Z" fill="#4B46EC"/>
<g opacity="0.8">
<path opacity="0.8" d="M298.33 127.08C298.183 127.049 298.047 126.976 297.94 126.87C297.86 126.791 297.796 126.697 297.753 126.593C297.709 126.489 297.687 126.378 297.687 126.265C297.687 126.152 297.709 126.041 297.753 125.937C297.796 125.833 297.86 125.739 297.94 125.66C298.21 125.37 304.75 118.66 322.24 113.47C322.35 113.433 322.466 113.418 322.582 113.427C322.698 113.436 322.81 113.468 322.913 113.522C323.016 113.576 323.107 113.65 323.181 113.74C323.254 113.829 323.309 113.933 323.341 114.044C323.374 114.156 323.383 114.273 323.369 114.388C323.355 114.503 323.318 114.614 323.26 114.715C323.202 114.815 323.124 114.903 323.032 114.973C322.939 115.042 322.833 115.092 322.72 115.12C305.72 120.12 299.25 126.77 299.18 126.84C299.074 126.954 298.938 127.037 298.789 127.079C298.639 127.121 298.48 127.122 298.33 127.08Z" fill="white"/>
</g>
<g opacity="0.8">
<path opacity="0.8" d="M300.86 157C300.664 156.954 300.49 156.84 300.37 156.679C300.249 156.517 300.189 156.319 300.199 156.117C300.21 155.916 300.291 155.725 300.428 155.578C300.566 155.43 300.75 155.335 300.95 155.31C301.08 155.31 314.21 153.41 324.45 135.77C324.506 135.672 324.582 135.586 324.671 135.518C324.761 135.449 324.863 135.398 324.972 135.369C325.081 135.34 325.195 135.332 325.307 135.347C325.419 135.362 325.527 135.399 325.625 135.455C325.723 135.512 325.809 135.587 325.877 135.676C325.946 135.766 325.997 135.868 326.026 135.977C326.055 136.086 326.063 136.2 326.048 136.312C326.033 136.424 325.996 136.532 325.94 136.63C315.24 155.09 301.73 157 301.16 157C301.061 157.02 300.959 157.02 300.86 157Z" fill="white"/>
</g>
<g opacity="0.2">
<path opacity="0.2" d="M265.11 143.32L266.01 149.77L266.69 149.85C266.57 148.93 266.44 148.02 266.31 147.11C267.43 147.23 268.54 147.33 269.66 147.41C269.66 147.21 269.6 147.02 269.58 146.81C268.47 146.74 267.34 146.64 266.23 146.51C266.11 145.68 266 144.83 265.88 143.99C267.13 144.12 268.39 144.23 269.64 144.31L269.55 143.73C268.07 143.63 266.6 143.49 265.11 143.32Z" fill="black"/>
<path opacity="0.2" d="M271 143.8C271.3 145.95 271.59 148.1 271.9 150.26H272.58C272.45 149.35 272.32 148.43 272.2 147.52C273.31 147.52 274.42 147.59 275.53 147.6L275.44 147C274.34 147 273.23 147 272.11 146.93C271.99 146.08 271.88 145.24 271.76 144.4C273.01 144.4 274.25 144.47 275.49 144.47C275.49 144.28 275.49 144.08 275.42 143.88C273.91 143.92 272.44 143.88 271 143.8Z" fill="black"/>
<path opacity="0.2" d="M276.77 143.91C277.08 146.05 277.37 148.2 277.67 150.35H278.34C278.25 149.67 278.15 149 278.06 148.35C278.64 148.35 279.21 148.35 279.78 148.29C281.4 148.22 282.26 147.29 282.07 145.93C281.88 144.57 280.79 143.8 279.17 143.93L276.77 143.91ZM277.53 144.47C278.1 144.47 278.66 144.47 279.23 144.42C280.51 144.36 281.23 144.89 281.4 145.93C281.57 146.97 280.95 147.58 279.68 147.64L277.98 147.7L277.53 144.47Z" fill="black"/>
<path opacity="0.2" d="M282.5 144.49L283.02 144.86C283.204 144.597 283.445 144.379 283.726 144.223C284.007 144.067 284.319 143.977 284.64 143.96C285.64 143.86 286.19 144.25 286.28 144.96C286.312 145.273 286.273 145.59 286.166 145.886C286.058 146.182 285.886 146.45 285.66 146.67C284.91 147.67 284.15 148.6 283.41 149.56L283.47 150.02C284.95 149.9 286.42 149.73 287.89 149.53C287.89 149.33 287.83 149.13 287.81 148.94C286.66 149.1 285.51 149.23 284.34 149.35C284.96 148.56 285.58 147.77 286.19 146.96C286.465 146.679 286.673 146.34 286.801 145.968C286.929 145.596 286.973 145.201 286.93 144.81C286.79 143.73 285.93 143.18 284.61 143.32C284.192 143.341 283.785 143.458 283.419 143.66C283.054 143.863 282.739 144.147 282.5 144.49Z" fill="black"/>
</g>
<path d="M198.3 86L201.1 90.9C200.996 91.1372 200.816 91.3339 200.59 91.46C200.355 91.5796 200.081 91.6011 199.83 91.52L197.69 86.3L198.3 86Z" fill="#4B46EC"/>
<path opacity="0.1" d="M198.3 86L201.1 90.9C200.996 91.1372 200.816 91.3339 200.59 91.46C200.355 91.5796 200.081 91.6011 199.83 91.52L197.69 86.3L198.3 86Z" fill="white"/>
<path d="M197.16 86.37C197.27 86.6 197.71 86.62 198.16 86.37C198.61 86.12 198.85 85.8 198.74 85.57C198.63 85.34 198.18 85.31 197.74 85.52C197.3 85.73 197 86.13 197.16 86.37Z" fill="#4B46EC"/>
<path opacity="0.1" d="M197.16 86.37C197.27 86.6 197.71 86.62 198.16 86.37C198.61 86.12 198.85 85.8 198.74 85.57C198.63 85.34 198.18 85.31 197.74 85.52C197.3 85.73 197 86.13 197.16 86.37Z" fill="white"/>
<path d="M190.31 94L195.64 95.85C195.725 96.0962 195.725 96.3639 195.64 96.61C195.543 96.8562 195.352 97.054 195.11 97.16L190 94.65L190.31 94Z" fill="#4B46EC"/>
<path opacity="0.1" d="M190.31 94L195.64 95.85C195.725 96.0962 195.725 96.3639 195.64 96.61C195.543 96.8562 195.352 97.054 195.11 97.16L190 94.65L190.31 94Z" fill="white"/>
<path d="M189.72 95.09C189.96 95.19 190.31 94.91 190.49 94.47C190.67 94.03 190.64 93.59 190.4 93.47C190.16 93.35 189.81 93.65 189.63 94.09C189.45 94.53 189.48 95 189.72 95.09Z" fill="#4B46EC"/>
<path opacity="0.1" d="M189.72 95.09C189.96 95.19 190.31 94.91 190.49 94.47C190.67 94.03 190.64 93.59 190.4 93.47C190.16 93.35 189.81 93.65 189.63 94.09C189.45 94.53 189.48 95 189.72 95.09Z" fill="white"/>
<path d="M191.84 110.61L196.42 107.3C196.67 107.38 196.887 107.537 197.04 107.75C197.18 107.973 197.227 108.243 197.17 108.5L192.17 111.18L191.84 110.61Z" fill="#4B46EC"/>
<path opacity="0.1" d="M191.84 110.61L196.42 107.3C196.67 107.38 196.887 107.537 197.04 107.75C197.18 107.973 197.227 108.243 197.17 108.5L192.17 111.18L191.84 110.61Z" fill="white"/>
<path d="M192.38 111.7C192.6 111.56 192.57 111.12 192.32 110.7C192.07 110.28 191.68 110.08 191.46 110.22C191.24 110.36 191.26 110.79 191.52 111.22C191.78 111.65 192.16 111.83 192.38 111.7Z" fill="#4B46EC"/>
<path opacity="0.1" d="M192.38 111.7C192.6 111.56 192.57 111.12 192.32 110.7C192.07 110.28 191.68 110.08 191.46 110.22C191.24 110.36 191.26 110.79 191.52 111.22C191.78 111.65 192.16 111.83 192.38 111.7Z" fill="white"/>
<path d="M199.45 116.14L201 110.7C201.247 110.618 201.513 110.618 201.76 110.7C202.006 110.793 202.212 110.97 202.34 111.2L200.12 116.4L199.45 116.14Z" fill="#4B46EC"/>
<path opacity="0.1" d="M199.45 116.14L201 110.7C201.247 110.618 201.513 110.618 201.76 110.7C202.006 110.793 202.212 110.97 202.34 111.2L200.12 116.4L199.45 116.14Z" fill="white"/>
<path d="M200.55 116.66C200.64 116.41 200.34 116.09 199.89 115.93C199.44 115.77 199 115.84 198.89 116.09C198.78 116.34 199.1 116.66 199.56 116.82C200.02 116.98 200.46 116.9 200.55 116.66Z" fill="#4B46EC"/>
<path opacity="0.1" d="M200.55 116.66C200.64 116.41 200.34 116.09 199.89 115.93C199.44 115.77 199 115.84 198.89 116.09C198.78 116.34 199.1 116.66 199.56 116.82C200.02 116.98 200.46 116.9 200.55 116.66Z" fill="white"/>
<path d="M210.42 114.89L207.72 109.89C207.829 109.655 208.011 109.462 208.24 109.34C208.485 109.246 208.755 109.246 209 109.34L211 114.61L210.42 114.89Z" fill="#4B46EC"/>
<path opacity="0.1" d="M210.42 114.89L207.72 109.89C207.829 109.655 208.011 109.462 208.24 109.34C208.485 109.246 208.755 109.246 209 109.34L211 114.61L210.42 114.89Z" fill="white"/>
<path d="M211.57 114.5C211.46 114.26 211.02 114.24 210.57 114.44C210.12 114.64 209.88 114.99 209.99 115.23C210.1 115.47 210.53 115.49 210.99 115.29C211.45 115.09 211.68 114.74 211.57 114.5Z" fill="#4B46EC"/>
<path opacity="0.1" d="M211.57 114.5C211.46 114.26 211.02 114.24 210.57 114.44C210.12 114.64 209.88 114.99 209.99 115.23C210.1 115.47 210.53 115.49 210.99 115.29C211.45 115.09 211.68 114.74 211.57 114.5Z" fill="white"/>
<path d="M222.8 98.81L217.3 100.1C217.103 99.9312 216.966 99.7031 216.91 99.45C216.864 99.1919 216.922 98.9262 217.07 98.71L222.69 98.14L222.8 98.81Z" fill="#4B46EC"/>
<path opacity="0.1" d="M222.8 98.81L217.3 100.1C217.103 99.9312 216.966 99.7031 216.91 99.45C216.864 99.1919 216.922 98.9262 217.07 98.71L222.69 98.14L222.8 98.81Z" fill="white"/>
<path d="M222.72 97.6C222.47 97.6 222.32 98.06 222.4 98.53C222.48 99 222.76 99.35 223.01 99.31C223.26 99.27 223.41 98.84 223.33 98.37C223.25 97.9 223 97.55 222.72 97.6Z" fill="#4B46EC"/>
<path opacity="0.1" d="M222.72 97.6C222.47 97.6 222.32 98.06 222.4 98.53C222.48 99 222.76 99.35 223.01 99.31C223.26 99.27 223.41 98.84 223.33 98.37C223.25 97.9 223 97.55 222.72 97.6Z" fill="white"/>
<path d="M211.91 87L209.65 92.18C209.399 92.235 209.137 92.2105 208.9 92.11C208.783 92.0509 208.678 91.9693 208.592 91.8698C208.506 91.7702 208.441 91.6548 208.4 91.53L211.31 86.69L211.91 87Z" fill="#4B46EC"/>
<path opacity="0.1" d="M211.91 87L209.65 92.18C209.399 92.235 209.137 92.2105 208.9 92.11C208.783 92.0509 208.678 91.9693 208.592 91.8698C208.506 91.7702 208.441 91.6548 208.4 91.53L211.31 86.69L211.91 87Z" fill="white"/>
<path d="M210.89 86.29C210.77 86.52 211.02 86.88 211.45 87.1C211.88 87.32 212.32 87.31 212.45 87.1C212.58 86.89 212.32 86.51 211.9 86.29C211.48 86.07 211 86.06 210.89 86.29Z" fill="#4B46EC"/>
<path opacity="0.1" d="M210.89 86.29C210.77 86.52 211.02 86.88 211.45 87.1C211.88 87.32 212.32 87.31 212.45 87.1C212.58 86.89 212.32 86.51 211.9 86.29C211.48 86.07 211 86.06 210.89 86.29Z" fill="white"/>
<path d="M218.09 108.92L212.94 106.6C212.885 106.344 212.917 106.077 213.03 105.84C213.149 105.609 213.353 105.433 213.6 105.35L218.41 108.35L218.09 108.92Z" fill="#4B46EC"/>
<path opacity="0.1" d="M218.09 108.92L212.94 106.6C212.885 106.344 212.917 106.077 213.03 105.84C213.149 105.609 213.353 105.433 213.6 105.35L218.41 108.35L218.09 108.92Z" fill="white"/>
<path d="M218.77 107.91C218.54 107.79 218.17 108.03 217.94 108.46C217.71 108.89 217.72 109.32 217.94 109.46C218.16 109.6 218.54 109.34 218.76 108.92C218.98 108.5 219 108 218.77 107.91Z" fill="#4B46EC"/>
<path opacity="0.1" d="M218.77 107.91C218.54 107.79 218.17 108.03 217.94 108.46C217.71 108.89 217.72 109.32 217.94 109.46C218.16 109.6 218.54 109.34 218.76 108.92C218.98 108.5 219 108 218.77 107.91Z" fill="white"/>
<path d="M205.02 114.12C212.31 114.12 218.22 108.21 218.22 100.92C218.22 93.6299 212.31 87.72 205.02 87.72C197.73 87.72 191.82 93.6299 191.82 100.92C191.82 108.21 197.73 114.12 205.02 114.12Z" fill="#4B46EC"/>
<path opacity="0.2" d="M205.02 114.12C212.31 114.12 218.22 108.21 218.22 100.92C218.22 93.6299 212.31 87.72 205.02 87.72C197.73 87.72 191.82 93.6299 191.82 100.92C191.82 108.21 197.73 114.12 205.02 114.12Z" fill="white"/>
<path d="M205.36 83.18L205.73 88.82C205.529 88.9869 205.281 89.085 205.02 89.1C204.759 89.1016 204.508 89.0011 204.32 88.82L204.68 83.18H205.36Z" fill="#4B46EC"/>
<path opacity="0.4" d="M205.36 83.18L205.73 88.82C205.529 88.9869 205.281 89.085 205.02 89.1C204.759 89.1016 204.508 89.0011 204.32 88.82L204.68 83.18H205.36Z" fill="white"/>
<path d="M204.16 83.06C204.16 83.32 204.55 83.53 205.02 83.53C205.49 83.53 205.89 83.32 205.89 83.06C205.89 82.8 205.5 82.59 205.02 82.59C204.54 82.59 204.16 82.8 204.16 83.06Z" fill="#4B46EC"/>
<path opacity="0.2" d="M204.16 83.06C204.16 83.32 204.55 83.53 205.02 83.53C205.49 83.53 205.89 83.32 205.89 83.06C205.89 82.8 205.5 82.59 205.02 82.59C204.54 82.59 204.16 82.8 204.16 83.06Z" fill="white"/>
<path d="M195 89.52L199.43 93.02C199.424 93.2788 199.332 93.5283 199.17 93.73C198.992 93.922 198.75 94.0429 198.49 94.07L194.54 90.07L195 89.52Z" fill="#4B46EC"/>
<path opacity="0.4" d="M195 89.52L199.43 93.02C199.424 93.2788 199.332 93.5283 199.17 93.73C198.992 93.922 198.75 94.0429 198.49 94.07L194.54 90.07L195 89.52Z" fill="white"/>
<path d="M194.11 90.33C194.3 90.5 194.72 90.33 195.04 90C195.36 89.67 195.46 89.21 195.27 89C195.08 88.79 194.66 89 194.34 89.33C194.02 89.66 193.92 90.16 194.11 90.33Z" fill="#4B46EC"/>
<path opacity="0.2" d="M194.11 90.33C194.3 90.5 194.72 90.33 195.04 90C195.36 89.67 195.46 89.21 195.27 89C195.08 88.79 194.66 89 194.34 89.33C194.02 89.66 193.92 90.16 194.11 90.33Z" fill="white"/>
<path d="M217.92 88.78L213.92 92.78C213.663 92.7427 213.424 92.6235 213.24 92.44C213.064 92.2465 212.97 91.9916 212.98 91.73L217.44 88.26L217.92 88.78Z" fill="#4B46EC"/>
<path opacity="0.4" d="M217.92 88.78L213.92 92.78C213.663 92.7427 213.424 92.6235 213.24 92.44C213.064 92.2465 212.97 91.9916 212.98 91.73L217.44 88.26L217.92 88.78Z" fill="white"/>
<path d="M217.21 87.79C217.02 87.97 217.12 88.4 217.44 88.79C217.76 89.18 218.17 89.3 218.37 89.13C218.57 88.96 218.46 88.53 218.14 88.13C217.82 87.73 217.41 87.62 217.21 87.79Z" fill="#4B46EC"/>
<path opacity="0.2" d="M217.21 87.79C217.02 87.97 217.12 88.4 217.44 88.79C217.76 89.18 218.17 89.3 218.37 89.13C218.57 88.96 218.46 88.53 218.14 88.13C217.82 87.73 217.41 87.62 217.21 87.79Z" fill="white"/>
<path d="M219 95.44L214.92 97.53C214.71 97.3927 214.544 97.1985 214.44 96.97C214.338 96.7369 214.317 96.4764 214.38 96.23L218.74 94.81L219 95.44Z" fill="#4B46EC"/>
<path opacity="0.4" d="M219 95.44L214.92 97.53C214.71 97.3927 214.544 97.1985 214.44 96.97C214.338 96.7369 214.317 96.4764 214.38 96.23L218.74 94.81L219 95.44Z" fill="white"/>
<path d="M218.48 94.35C218.2 94.46 218.13 94.91 218.31 95.35C218.49 95.79 218.87 96.05 219.15 95.94C219.43 95.83 219.5 95.37 219.31 94.94C219.12 94.51 218.76 94.23 218.48 94.35Z" fill="#4B46EC"/>
<path opacity="0.2" d="M218.48 94.35C218.2 94.46 218.13 94.91 218.31 95.35C218.49 95.79 218.87 96.05 219.15 95.94C219.43 95.83 219.5 95.37 219.31 94.94C219.12 94.51 218.76 94.23 218.48 94.35Z" fill="white"/>
<path d="M210 92.07L209.58 94.07C209.58 94.07 209.1 94.4 208.74 94.25C208.38 94.1 208.28 93.53 208.28 93.53L209.37 91.86L210 92.07Z" fill="#4B46EC"/>
<path opacity="0.5" d="M210 92.07L209.58 94.07C209.58 94.07 209.1 94.4 208.74 94.25C208.38 94.1 208.28 93.53 208.28 93.53L209.37 91.86L210 92.07Z" fill="white"/>
<path d="M208.73 92C208.669 92.199 208.687 92.4139 208.78 92.6001C208.873 92.7863 209.034 92.9295 209.23 93C209.374 93.0437 209.528 93.0443 209.672 93.0016C209.816 92.9589 209.945 92.8748 210.042 92.7598C210.139 92.6448 210.2 92.5038 210.218 92.3544C210.236 92.2049 210.21 92.0535 210.142 91.9189C210.075 91.7842 209.97 91.6723 209.839 91.5969C209.709 91.5214 209.56 91.4859 209.409 91.4945C209.259 91.5031 209.115 91.5556 208.994 91.6455C208.873 91.7353 208.781 91.8586 208.73 92Z" fill="#4B46EC"/>
<path opacity="0.3" d="M208.73 92C208.669 92.199 208.687 92.4139 208.78 92.6001C208.873 92.7863 209.034 92.9295 209.23 93C209.374 93.0437 209.528 93.0443 209.672 93.0016C209.816 92.9589 209.945 92.8748 210.042 92.7598C210.139 92.6448 210.2 92.5038 210.218 92.3544C210.236 92.2049 210.21 92.0535 210.142 91.9189C210.075 91.7842 209.97 91.6723 209.839 91.5969C209.709 91.5214 209.56 91.4859 209.409 91.4945C209.259 91.5031 209.115 91.5556 208.994 91.6455C208.873 91.7353 208.781 91.8586 208.73 92Z" fill="white"/>
<path d="M202.64 91.25L203.64 92.98C203.64 92.98 203.5 93.55 203.14 93.68C202.993 93.7059 202.843 93.6987 202.699 93.6589C202.555 93.6191 202.422 93.5478 202.31 93.45L202 91.45L202.64 91.25Z" fill="#4B46EC"/>
<path opacity="0.5" d="M202.64 91.25L203.64 92.98C203.64 92.98 203.5 93.55 203.14 93.68C202.993 93.7059 202.843 93.6987 202.699 93.6589C202.555 93.6191 202.422 93.5478 202.31 93.45L202 91.45L202.64 91.25Z" fill="white"/>
<path d="M201.66 92.08C201.697 92.2532 201.785 92.411 201.914 92.5325C202.043 92.654 202.205 92.7333 202.38 92.76C202.555 92.7866 202.734 92.7592 202.893 92.6814C203.052 92.6037 203.184 92.4793 203.27 92.3249C203.357 92.1705 203.394 91.9934 203.377 91.8172C203.36 91.641 203.29 91.4741 203.176 91.3389C203.062 91.2036 202.909 91.1063 202.738 91.0601C202.568 91.0138 202.387 91.0208 202.22 91.08C202.015 91.1405 201.841 91.279 201.736 91.4659C201.632 91.6528 201.604 91.8732 201.66 92.08Z" fill="#4B46EC"/>
<path opacity="0.3" d="M201.66 92.08C201.697 92.2532 201.785 92.411 201.914 92.5325C202.043 92.654 202.205 92.7333 202.38 92.76C202.555 92.7866 202.734 92.7592 202.893 92.6814C203.052 92.6037 203.184 92.4793 203.27 92.3249C203.357 92.1705 203.394 91.9934 203.377 91.8172C203.36 91.641 203.29 91.4741 203.176 91.3389C203.062 91.2036 202.909 91.1063 202.738 91.0601C202.568 91.0138 202.387 91.0208 202.22 91.08C202.015 91.1405 201.841 91.279 201.736 91.4659C201.632 91.6528 201.604 91.8732 201.66 92.08Z" fill="white"/>
<path d="M196.88 96.66L198.88 97.09C198.88 97.09 199.21 97.58 199.06 97.93C198.98 98.0563 198.873 98.1632 198.747 98.2428C198.621 98.3224 198.478 98.3727 198.33 98.39L196.67 97.28L196.88 96.66Z" fill="#4B46EC"/>
<path opacity="0.5" d="M196.88 96.66L198.88 97.09C198.88 97.09 199.21 97.58 199.06 97.93C198.98 98.0563 198.873 98.1632 198.747 98.2428C198.621 98.3224 198.478 98.3727 198.33 98.39L196.67 97.28L196.88 96.66Z" fill="white"/>
<path d="M196.83 98C197.033 98.051 197.248 98.0276 197.436 97.9342C197.623 97.8408 197.772 97.6835 197.854 97.4906C197.936 97.2977 197.946 97.0818 197.883 96.8819C197.82 96.682 197.688 96.5111 197.51 96.4C197.307 96.3491 197.092 96.3724 196.904 96.4658C196.716 96.5592 196.568 96.7165 196.486 96.9095C196.404 97.1024 196.394 97.3182 196.457 97.5182C196.52 97.7181 196.652 97.889 196.83 98Z" fill="#4B46EC"/>
<path opacity="0.3" d="M196.83 98C197.033 98.051 197.248 98.0276 197.436 97.9342C197.623 97.8408 197.772 97.6835 197.854 97.4906C197.936 97.2977 197.946 97.0818 197.883 96.8819C197.82 96.682 197.688 96.5111 197.51 96.4C197.307 96.3491 197.092 96.3724 196.904 96.4658C196.716 96.5592 196.568 96.7165 196.486 96.9095C196.404 97.1024 196.394 97.3182 196.457 97.5182C196.52 97.7181 196.652 97.889 196.83 98Z" fill="white"/>
<path d="M198.43 106.62L199.51 104.94C199.653 104.901 199.802 104.893 199.949 104.915C200.095 104.937 200.235 104.99 200.36 105.07C200.455 105.186 200.52 105.322 200.552 105.468C200.583 105.614 200.579 105.766 200.54 105.91L198.92 107.09L198.43 106.62Z" fill="#4B46EC"/>
<path opacity="0.5" d="M198.43 106.62L199.51 104.94C199.653 104.901 199.802 104.893 199.949 104.915C200.095 104.937 200.235 104.99 200.36 105.07C200.455 105.186 200.52 105.322 200.552 105.468C200.583 105.614 200.579 105.766 200.54 105.91L198.92 107.09L198.43 106.62Z" fill="white"/>
<path d="M199.62 107.11C199.753 106.993 199.847 106.839 199.889 106.667C199.932 106.496 199.921 106.315 199.859 106.15C199.796 105.984 199.685 105.842 199.54 105.741C199.394 105.641 199.222 105.587 199.045 105.587C198.868 105.587 198.696 105.641 198.55 105.741C198.405 105.842 198.294 105.984 198.231 106.15C198.169 106.315 198.158 106.496 198.201 106.667C198.243 106.839 198.337 106.993 198.47 107.11C198.623 107.261 198.83 107.345 199.045 107.345C199.26 107.345 199.467 107.261 199.62 107.11V107.11Z" fill="#4B46EC"/>
<path opacity="0.3" d="M199.62 107.11C199.753 106.993 199.847 106.839 199.889 106.667C199.932 106.496 199.921 106.315 199.859 106.15C199.796 105.984 199.685 105.842 199.54 105.741C199.394 105.641 199.222 105.587 199.045 105.587C198.868 105.587 198.696 105.641 198.55 105.741C198.405 105.842 198.294 105.984 198.231 106.15C198.169 106.315 198.158 106.496 198.201 106.667C198.243 106.839 198.337 106.993 198.47 107.11C198.623 107.261 198.83 107.345 199.045 107.345C199.26 107.345 199.467 107.261 199.62 107.11Z" fill="white"/>
<path d="M206.26 108.6L205.41 106.78C205.41 106.78 205.6 106.23 205.98 106.14C206.128 106.122 206.277 106.14 206.416 106.193C206.556 106.245 206.68 106.33 206.78 106.44L206.91 108.44L206.26 108.6Z" fill="#4B46EC"/>
<path opacity="0.5" d="M206.26 108.6L205.41 106.78C205.41 106.78 205.6 106.23 205.98 106.14C206.128 106.122 206.277 106.14 206.416 106.193C206.556 106.245 206.68 106.33 206.78 106.44L206.91 108.44L206.26 108.6Z" fill="white"/>
<path d="M207.31 107.85C207.239 107.644 207.092 107.472 206.9 107.368C206.708 107.264 206.484 107.237 206.272 107.291C206.06 107.345 205.877 107.477 205.758 107.66C205.639 107.843 205.593 108.065 205.63 108.28C205.701 108.486 205.848 108.659 206.04 108.762C206.232 108.866 206.456 108.893 206.668 108.839C206.88 108.785 207.063 108.653 207.182 108.47C207.301 108.287 207.347 108.065 207.31 107.85Z" fill="#4B46EC"/>
<path opacity="0.3" d="M207.31 107.85C207.239 107.644 207.092 107.472 206.9 107.368C206.708 107.264 206.484 107.237 206.272 107.291C206.06 107.345 205.877 107.477 205.758 107.66C205.639 107.843 205.593 108.065 205.63 108.28C205.701 108.486 205.848 108.659 206.04 108.762C206.232 108.866 206.456 108.893 206.668 108.839C206.88 108.785 207.063 108.653 207.182 108.47C207.301 108.287 207.347 108.065 207.31 107.85Z" fill="white"/>
<path d="M211.71 105.91L209.85 105.17C209.791 105.034 209.761 104.888 209.761 104.74C209.761 104.592 209.791 104.446 209.85 104.31C209.946 104.196 210.067 104.106 210.205 104.049C210.342 103.991 210.491 103.968 210.64 103.98L212.1 105.34L211.71 105.91Z" fill="#4B46EC"/>
<path opacity="0.5" d="M211.71 105.91L209.85 105.17C209.791 105.034 209.761 104.888 209.761 104.74C209.761 104.592 209.791 104.446 209.85 104.31C209.946 104.196 210.067 104.106 210.205 104.049C210.342 103.991 210.491 103.968 210.64 103.98L212.1 105.34L211.71 105.91Z" fill="white"/>
<path d="M212 104.65C211.906 104.597 211.802 104.563 211.694 104.551C211.586 104.538 211.477 104.547 211.373 104.577C211.269 104.606 211.172 104.656 211.087 104.724C211.003 104.791 210.932 104.875 210.88 104.97C210.756 105.146 210.706 105.364 210.739 105.576C210.773 105.789 210.888 105.98 211.06 106.11C211.253 106.218 211.48 106.248 211.695 106.194C211.909 106.14 212.095 106.007 212.215 105.821C212.334 105.635 212.379 105.41 212.339 105.193C212.299 104.975 212.178 104.781 212 104.65Z" fill="#4B46EC"/>
<path opacity="0.3" d="M212 104.65C211.906 104.597 211.802 104.563 211.694 104.551C211.586 104.538 211.477 104.547 211.373 104.577C211.269 104.606 211.172 104.656 211.087 104.724C211.003 104.791 210.932 104.875 210.88 104.97C210.756 105.146 210.706 105.364 210.739 105.576C210.773 105.789 210.888 105.98 211.06 106.11C211.253 106.218 211.48 106.248 211.695 106.194C211.909 106.14 212.095 106.007 212.215 105.821C212.334 105.635 212.379 105.41 212.339 105.193C212.299 104.975 212.178 104.781 212 104.65Z" fill="white"/>
<path d="M213.24 100.22L211.29 100.66C211.29 100.66 210.79 100.36 210.77 99.98C210.787 99.8317 210.838 99.6892 210.917 99.5628C210.997 99.4365 211.104 99.3296 211.23 99.25L213.23 99.54L213.24 100.22Z" fill="#4B46EC"/>
<path opacity="0.5" d="M213.24 100.22L211.29 100.66C211.29 100.66 210.79 100.36 210.77 99.98C210.787 99.8317 210.838 99.6892 210.917 99.5628C210.997 99.4365 211.104 99.3296 211.23 99.25L213.23 99.54L213.24 100.22Z" fill="white"/>
<path d="M212.73 99C212.515 99.0252 212.318 99.1334 212.182 99.3015C212.046 99.4696 211.98 99.6844 212 99.9C211.993 100.008 212.008 100.116 212.045 100.217C212.083 100.319 212.141 100.411 212.216 100.489C212.291 100.566 212.382 100.627 212.482 100.667C212.583 100.707 212.69 100.726 212.798 100.722C212.906 100.717 213.012 100.69 213.109 100.643C213.206 100.595 213.292 100.527 213.361 100.444C213.43 100.361 213.48 100.264 213.51 100.16C213.539 100.056 213.546 99.9469 213.53 99.84C213.533 99.7323 213.514 99.6251 213.475 99.5246C213.437 99.4241 213.378 99.3322 213.304 99.2542C213.23 99.1762 213.141 99.1136 213.042 99.07C212.944 99.0264 212.838 99.0026 212.73 99V99Z" fill="#4B46EC"/>
<path opacity="0.3" d="M212.73 99C212.515 99.0252 212.318 99.1334 212.182 99.3015C212.046 99.4696 211.98 99.6844 212 99.9C211.993 100.008 212.008 100.116 212.045 100.217C212.083 100.319 212.141 100.411 212.216 100.489C212.291 100.566 212.382 100.627 212.482 100.667C212.583 100.707 212.69 100.726 212.798 100.722C212.906 100.717 213.012 100.69 213.109 100.643C213.206 100.595 213.292 100.527 213.361 100.444C213.43 100.361 213.48 100.264 213.51 100.16C213.539 100.056 213.546 99.9469 213.53 99.84C213.533 99.7323 213.514 99.6251 213.475 99.5246C213.437 99.4241 213.378 99.3322 213.304 99.2542C213.23 99.1762 213.141 99.1136 213.042 99.07C212.944 99.0264 212.838 99.0026 212.73 99V99Z" fill="white"/>
<path d="M188.63 98.53L194.27 98.96C194.405 99.1821 194.464 99.4415 194.44 99.7C194.403 99.9584 194.271 100.194 194.07 100.36L188.54 99.2L188.63 98.53Z" fill="#4B46EC"/>
<path opacity="0.4" d="M188.63 98.53L194.27 98.96C194.405 99.1821 194.464 99.4415 194.44 99.7C194.403 99.9584 194.271 100.194 194.07 100.36L188.54 99.2L188.63 98.53Z" fill="white"/>
<path d="M188.34 99.7C188.6 99.7 188.86 99.39 188.93 98.91C189 98.43 188.84 98.02 188.59 97.99C188.34 97.96 188.07 98.3 188 98.78C187.93 99.26 188.08 99.67 188.34 99.7Z" fill="#4B46EC"/>
<path opacity="0.2" d="M188.34 99.7C188.6 99.7 188.86 99.39 188.93 98.91C189 98.43 188.84 98.02 188.59 97.99C188.34 97.96 188.07 98.3 188 98.78C187.93 99.26 188.08 99.67 188.34 99.7Z" fill="white"/>
<path d="M190.67 105.66L195.88 103.46C196.103 103.594 196.275 103.798 196.37 104.04C196.47 104.283 196.47 104.557 196.37 104.8L190.93 106.3L190.67 105.66Z" fill="#4B46EC"/>
<path opacity="0.4" d="M190.67 105.66L195.88 103.46C196.103 103.594 196.275 103.798 196.37 104.04C196.47 104.283 196.47 104.557 196.37 104.8L190.93 106.3L190.67 105.66Z" fill="white"/>
<path d="M191 106.84C191.25 106.76 191.32 106.32 191.16 105.84C191 105.36 190.68 105.09 190.43 105.18C190.18 105.27 190.12 105.7 190.27 106.18C190.42 106.66 190.71 106.93 191 106.84Z" fill="#4B46EC"/>
<path opacity="0.2" d="M191 106.84C191.25 106.76 191.32 106.32 191.16 105.84C191 105.36 190.68 105.09 190.43 105.18C190.18 105.27 190.12 105.7 190.27 106.18C190.42 106.66 190.71 106.93 191 106.84Z" fill="white"/>
<path d="M205.6 118.28L204.6 112.72C204.777 112.528 205.013 112.401 205.27 112.36C205.531 112.338 205.791 112.413 206 112.57L206.24 118.21L205.6 118.28Z" fill="#4B46EC"/>
<path opacity="0.4" d="M205.6 118.28L204.6 112.72C204.777 112.528 205.013 112.401 205.27 112.36C205.531 112.338 205.791 112.413 206 112.57L206.24 118.21L205.6 118.28Z" fill="white"/>
<path d="M206.81 118.28C206.81 118.02 206.38 117.85 205.9 117.9C205.42 117.95 205.06 118.2 205.09 118.46C205.12 118.72 205.53 118.89 206 118.84C206.47 118.79 206.84 118.53 206.81 118.28Z" fill="#4B46EC"/>
<path opacity="0.2" d="M206.81 118.28C206.81 118.02 206.38 117.85 205.9 117.9C205.42 117.95 205.06 118.2 205.09 118.46C205.12 118.72 205.53 118.89 206 118.84C206.47 118.79 206.84 118.53 206.81 118.28Z" fill="white"/>
<path d="M221.21 105.18L215.67 104.12C215.554 103.885 215.519 103.617 215.57 103.36C215.634 103.105 215.796 102.886 216.02 102.75L221.38 104.52L221.21 105.18Z" fill="#4B46EC"/>
<path opacity="0.4" d="M221.21 105.18L215.67 104.12C215.554 103.885 215.519 103.617 215.57 103.36C215.634 103.105 215.796 102.886 216.02 102.75L221.38 104.52L221.21 105.18Z" fill="white"/>
<path d="M221.64 104.05C221.39 103.98 221.08 104.3 220.96 104.77C220.84 105.24 220.96 105.66 221.2 105.72C221.44 105.78 221.75 105.47 221.87 105C221.99 104.53 221.89 104.11 221.64 104.05Z" fill="#4B46EC"/>
<path opacity="0.2" d="M221.64 104.05C221.39 103.98 221.08 104.3 220.96 104.77C220.84 105.24 220.96 105.66 221.2 105.72C221.44 105.78 221.75 105.47 221.87 105C221.99 104.53 221.89 104.11 221.64 104.05Z" fill="white"/>
<path d="M194.66 115.3L197.6 110.48C197.859 110.462 198.118 110.525 198.34 110.66C198.449 110.734 198.542 110.828 198.614 110.938C198.686 111.048 198.735 111.171 198.76 111.3L195.21 115.69L194.66 115.3Z" fill="#4B46EC"/>
<path opacity="0.4" d="M194.66 115.3L197.6 110.48C197.859 110.462 198.118 110.525 198.34 110.66C198.449 110.734 198.542 110.828 198.614 110.938C198.686 111.048 198.735 111.171 198.76 111.3L195.21 115.69L194.66 115.3Z" fill="white"/>
<path d="M195.57 116.1C195.72 115.89 195.57 115.49 195.13 115.22C194.69 114.95 194.3 114.89 194.13 115.1C193.96 115.31 194.13 115.71 194.57 115.98C195.01 116.25 195.42 116.31 195.57 116.1Z" fill="#4B46EC"/>
<path opacity="0.2" d="M195.57 116.1C195.72 115.89 195.57 115.49 195.13 115.22C194.69 114.95 194.3 114.89 194.13 115.1C193.96 115.31 194.13 115.71 194.57 115.98C195.01 116.25 195.42 116.31 195.57 116.1Z" fill="white"/>
<path d="M217.55 114.16L213.26 110.49C213.279 110.229 213.38 109.98 213.55 109.78C213.731 109.59 213.978 109.479 214.24 109.47L218.02 113.68L217.55 114.16Z" fill="#4B46EC"/>
<path opacity="0.4" d="M217.55 114.16L213.26 110.49C213.279 110.229 213.38 109.98 213.55 109.78C213.731 109.59 213.978 109.479 214.24 109.47L218.02 113.68L217.55 114.16Z" fill="white"/>
<path d="M218.48 113.38C218.29 113.2 217.87 113.38 217.48 113.68C217.09 113.98 217.03 114.44 217.22 114.62C217.41 114.8 217.82 114.68 218.16 114.33C218.5 113.98 218.66 113.56 218.48 113.38Z" fill="#4B46EC"/>
<path opacity="0.2" d="M218.48 113.38C218.29 113.2 217.87 113.38 217.48 113.68C217.09 113.98 217.03 114.44 217.22 114.62C217.41 114.8 217.82 114.68 218.16 114.33C218.5 113.98 218.66 113.56 218.48 113.38Z" fill="white"/>
<path opacity="0.2" d="M207.37 97.56C207.37 97.7384 207.423 97.9128 207.522 98.0611C207.622 98.2093 207.763 98.3246 207.928 98.3924C208.093 98.4603 208.274 98.4775 208.449 98.4419C208.624 98.4064 208.784 98.3197 208.91 98.1928C209.035 98.0659 209.12 97.9046 209.154 97.7294C209.187 97.5542 209.168 97.3729 209.099 97.2086C209.029 97.0444 208.912 96.9045 208.763 96.8068C208.613 96.7091 208.438 96.658 208.26 96.66C208.142 96.66 208.026 96.6834 207.917 96.7287C207.808 96.7741 207.71 96.8405 207.627 96.9242C207.544 97.0079 207.479 97.1072 207.435 97.2164C207.391 97.3255 207.369 97.4423 207.37 97.56Z" fill="white"/>
<path opacity="0.2" d="M206.16 102.75C206.16 102.928 206.213 103.102 206.312 103.25C206.411 103.398 206.551 103.513 206.716 103.582C206.88 103.65 207.061 103.667 207.236 103.633C207.41 103.598 207.571 103.512 207.696 103.386C207.822 103.261 207.908 103.1 207.943 102.926C207.977 102.751 207.96 102.57 207.891 102.406C207.823 102.241 207.708 102.101 207.56 102.002C207.412 101.903 207.238 101.85 207.06 101.85C206.941 101.849 206.824 101.871 206.714 101.916C206.604 101.961 206.504 102.027 206.421 102.111C206.337 102.194 206.27 102.294 206.226 102.404C206.181 102.514 206.159 102.631 206.16 102.75Z" fill="white"/>
<path opacity="0.2" d="M213.14 106.3C213.138 106.479 213.189 106.654 213.288 106.804C213.386 106.953 213.526 107.07 213.691 107.14C213.856 107.209 214.038 107.228 214.213 107.193C214.389 107.159 214.55 107.073 214.676 106.946C214.803 106.82 214.889 106.659 214.923 106.483C214.958 106.308 214.939 106.126 214.87 105.961C214.8 105.796 214.683 105.656 214.534 105.558C214.384 105.459 214.209 105.408 214.03 105.41C213.794 105.41 213.568 105.504 213.401 105.671C213.234 105.838 213.14 106.064 213.14 106.3Z" fill="white"/>
<path opacity="0.2" d="M209.73 110.34C210.227 110.34 210.63 109.937 210.63 109.44C210.63 108.943 210.227 108.54 209.73 108.54C209.233 108.54 208.83 108.943 208.83 109.44C208.83 109.937 209.233 110.34 209.73 110.34Z" fill="white"/>
<path opacity="0.2" d="M200.65 96.72C200.648 96.8984 200.699 97.0734 200.797 97.2227C200.894 97.372 201.034 97.489 201.199 97.5586C201.363 97.6283 201.544 97.6475 201.719 97.6139C201.895 97.5803 202.056 97.4954 202.183 97.3699C202.31 97.2445 202.396 97.0842 202.432 96.9093C202.467 96.7345 202.45 96.553 202.382 96.388C202.315 96.2229 202.199 96.0818 202.051 95.9824C201.903 95.8831 201.728 95.83 201.55 95.83C201.313 95.83 201.086 95.9234 200.917 96.0901C200.749 96.2567 200.653 96.4831 200.65 96.72Z" fill="white"/>
<path opacity="0.2" d="M196.79 101.3C196.79 101.478 196.843 101.652 196.942 101.8C197.041 101.948 197.181 102.063 197.346 102.132C197.51 102.2 197.691 102.217 197.866 102.183C198.04 102.148 198.201 102.062 198.326 101.936C198.452 101.811 198.538 101.65 198.573 101.476C198.607 101.301 198.59 101.12 198.521 100.956C198.453 100.791 198.338 100.651 198.19 100.552C198.042 100.453 197.868 100.4 197.69 100.4C197.571 100.399 197.454 100.421 197.344 100.466C197.234 100.511 197.134 100.577 197.051 100.661C196.967 100.744 196.901 100.844 196.856 100.954C196.811 101.064 196.789 101.181 196.79 101.3V101.3Z" fill="white"/>
<path opacity="0.2" d="M195.53 107.65C195.53 107.828 195.583 108.002 195.682 108.15C195.781 108.298 195.921 108.413 196.086 108.481C196.25 108.55 196.431 108.567 196.606 108.533C196.78 108.498 196.94 108.412 197.066 108.286C197.192 108.161 197.278 108 197.313 107.826C197.347 107.651 197.33 107.47 197.261 107.306C197.193 107.141 197.078 107.001 196.93 106.902C196.782 106.803 196.608 106.75 196.43 106.75C196.191 106.75 195.962 106.845 195.794 107.014C195.625 107.182 195.53 107.411 195.53 107.65Z" fill="white"/>
<path opacity="0.2" d="M204.13 99.25C204.128 99.4288 204.179 99.6042 204.277 99.7537C204.376 99.9033 204.516 100.02 204.681 100.09C204.846 100.159 205.028 100.178 205.203 100.143C205.379 100.109 205.54 100.023 205.666 99.8964C205.793 99.7699 205.879 99.6086 205.913 99.4331C205.948 99.2576 205.929 99.0758 205.86 98.9109C205.79 98.7461 205.673 98.6056 205.524 98.5075C205.374 98.4094 205.199 98.358 205.02 98.36C204.785 98.3626 204.56 98.4572 204.394 98.6236C204.227 98.7899 204.133 99.0148 204.13 99.25Z" fill="white"/>
<path opacity="0.2" d="M201.41 108.39C201.408 108.568 201.459 108.743 201.557 108.893C201.654 109.042 201.794 109.159 201.959 109.229C202.123 109.298 202.304 109.317 202.479 109.284C202.655 109.25 202.816 109.165 202.943 109.04C203.07 108.914 203.156 108.754 203.192 108.579C203.227 108.404 203.21 108.223 203.142 108.058C203.075 107.893 202.959 107.752 202.811 107.652C202.663 107.553 202.488 107.5 202.31 107.5C202.073 107.5 201.846 107.593 201.677 107.76C201.509 107.927 201.413 108.153 201.41 108.39Z" fill="white"/>
<path opacity="0.2" d="M205.73 91.25C205.73 91.428 205.783 91.602 205.882 91.75C205.981 91.898 206.121 92.0134 206.286 92.0815C206.45 92.1496 206.631 92.1675 206.806 92.1327C206.98 92.098 207.14 92.0123 207.266 91.8864C207.392 91.7606 207.478 91.6002 207.513 91.4256C207.547 91.251 207.53 91.0701 207.461 90.9056C207.393 90.7412 207.278 90.6006 207.13 90.5017C206.982 90.4028 206.808 90.35 206.63 90.35C206.511 90.3487 206.394 90.3711 206.284 90.4158C206.174 90.4606 206.074 90.5268 205.991 90.6106C205.907 90.6945 205.84 90.7942 205.796 90.904C205.751 91.0138 205.729 91.1315 205.73 91.25Z" fill="white"/>
<path opacity="0.2" d="M195.59 96.28C196.087 96.28 196.49 95.8771 196.49 95.38C196.49 94.883 196.087 94.48 195.59 94.48C195.093 94.48 194.69 94.883 194.69 95.38C194.69 95.8771 195.093 96.28 195.59 96.28Z" fill="white"/>
<path opacity="0.2" d="M212.34 96.04C212.832 96.04 213.23 95.6415 213.23 95.15C213.23 94.6585 212.832 94.26 212.34 94.26C211.848 94.26 211.45 94.6585 211.45 95.15C211.45 95.6415 211.848 96.04 212.34 96.04Z" fill="white"/>
<path opacity="0.2" d="M204.97 96.28C205.218 96.28 205.42 96.0785 205.42 95.83C205.42 95.5815 205.218 95.38 204.97 95.38C204.721 95.38 204.52 95.5815 204.52 95.83C204.52 96.0785 204.721 96.28 204.97 96.28Z" fill="white"/>
<path opacity="0.2" d="M199.9 90.66C199.9 90.7494 199.927 90.8368 199.977 90.911C200.026 90.9852 200.097 91.0429 200.18 91.0766C200.263 91.1104 200.354 91.1187 200.441 91.1005C200.529 91.0823 200.609 91.0384 200.672 90.9745C200.734 90.9106 200.776 90.8294 200.793 90.7415C200.809 90.6536 200.798 90.5628 200.763 90.4807C200.727 90.3987 200.668 90.3292 200.593 90.2809C200.517 90.2327 200.429 90.208 200.34 90.21C200.222 90.2126 200.11 90.2612 200.028 90.3453C199.946 90.4294 199.9 90.5424 199.9 90.66Z" fill="white"/>
<path opacity="0.2" d="M210.45 91.25C210.699 91.25 210.9 91.0486 210.9 90.8C210.9 90.5515 210.699 90.35 210.45 90.35C210.201 90.35 210 90.5515 210 90.8C210 91.0486 210.201 91.25 210.45 91.25Z" fill="white"/>
<path opacity="0.2" d="M215.91 100.41C216.159 100.41 216.36 100.209 216.36 99.96C216.36 99.7115 216.159 99.51 215.91 99.51C215.661 99.51 215.46 99.7115 215.46 99.96C215.46 100.209 215.661 100.41 215.91 100.41Z" fill="white"/>
<path opacity="0.2" d="M201.8 101.56C202.048 101.56 202.25 101.359 202.25 101.11C202.25 100.862 202.048 100.66 201.8 100.66C201.551 100.66 201.35 100.862 201.35 101.11C201.35 101.359 201.551 101.56 201.8 101.56Z" fill="white"/>
<path opacity="0.2" d="M193.56 102.64C193.56 102.729 193.587 102.817 193.637 102.891C193.686 102.965 193.757 103.023 193.84 103.057C193.923 103.09 194.014 103.099 194.102 103.08C194.189 103.062 194.269 103.018 194.332 102.955C194.394 102.891 194.436 102.809 194.453 102.722C194.469 102.634 194.458 102.543 194.423 102.461C194.387 102.379 194.328 102.309 194.253 102.261C194.177 102.213 194.089 102.188 194 102.19C193.882 102.193 193.77 102.241 193.688 102.325C193.606 102.409 193.56 102.522 193.56 102.64Z" fill="white"/>
<path opacity="0.2" d="M202.12 105.07C202.12 105.159 202.146 105.246 202.196 105.32C202.245 105.394 202.316 105.452 202.398 105.486C202.48 105.52 202.57 105.529 202.658 105.511C202.745 105.494 202.825 105.451 202.888 105.388C202.951 105.325 202.994 105.245 203.011 105.158C203.029 105.07 203.02 104.98 202.986 104.898C202.952 104.816 202.894 104.745 202.82 104.696C202.746 104.646 202.659 104.62 202.57 104.62C202.451 104.62 202.336 104.667 202.252 104.752C202.167 104.836 202.12 104.951 202.12 105.07Z" fill="white"/>
<path opacity="0.2" d="M199.73 110.62C199.978 110.62 200.18 110.419 200.18 110.17C200.18 109.922 199.978 109.72 199.73 109.72C199.481 109.72 199.28 109.922 199.28 110.17C199.28 110.419 199.481 110.62 199.73 110.62Z" fill="white"/>
<path opacity="0.2" d="M204.74 110.17C204.74 110.289 204.787 110.404 204.872 110.488C204.956 110.573 205.071 110.62 205.19 110.62C205.254 110.63 205.319 110.625 205.382 110.607C205.444 110.589 205.501 110.558 205.55 110.516C205.6 110.474 205.639 110.421 205.666 110.363C205.693 110.304 205.707 110.24 205.707 110.175C205.707 110.11 205.693 110.046 205.666 109.987C205.639 109.929 205.6 109.876 205.55 109.834C205.501 109.792 205.444 109.761 205.382 109.743C205.319 109.725 205.254 109.72 205.19 109.73C205.072 109.73 204.959 109.776 204.875 109.858C204.791 109.941 204.743 110.052 204.74 110.17Z" fill="white"/>
<path d="M196.43 165.71C196.371 165.711 196.314 165.69 196.27 165.65C196.246 165.628 196.227 165.6 196.214 165.57C196.201 165.54 196.194 165.508 196.194 165.475C196.194 165.442 196.201 165.41 196.214 165.38C196.227 165.35 196.246 165.322 196.27 165.3C196.27 165.3 196.87 164.6 197.96 163.45C197.981 163.421 198.007 163.397 198.038 163.379C198.069 163.361 198.104 163.35 198.139 163.346C198.175 163.343 198.211 163.347 198.245 163.358C198.278 163.37 198.309 163.389 198.335 163.413C198.361 163.438 198.382 163.468 198.395 163.501C198.409 163.534 198.415 163.569 198.414 163.605C198.412 163.641 198.403 163.676 198.387 163.708C198.371 163.74 198.348 163.768 198.32 163.79C197.24 164.93 196.66 165.62 196.65 165.62C196.624 165.652 196.59 165.677 196.551 165.693C196.513 165.709 196.471 165.714 196.43 165.71Z" fill="white"/>
<path d="M199.55 162.38C199.483 162.381 199.419 162.356 199.37 162.31C199.346 162.288 199.327 162.26 199.314 162.23C199.301 162.2 199.294 162.168 199.294 162.135C199.294 162.102 199.301 162.07 199.314 162.04C199.327 162.01 199.346 161.982 199.37 161.96C200.56 160.76 201.82 159.56 203.12 158.37C203.167 158.324 203.23 158.299 203.295 158.299C203.36 158.299 203.423 158.324 203.47 158.37C203.516 158.418 203.542 158.483 203.542 158.55C203.542 158.617 203.516 158.682 203.47 158.73C202.18 159.91 200.93 161.11 199.75 162.3C199.724 162.327 199.693 162.348 199.659 162.362C199.624 162.375 199.587 162.382 199.55 162.38V162.38ZM204.82 157.38C204.786 157.38 204.753 157.372 204.722 157.358C204.691 157.345 204.663 157.325 204.64 157.3C204.616 157.277 204.597 157.249 204.583 157.218C204.57 157.187 204.563 157.154 204.563 157.12C204.563 157.086 204.57 157.053 204.583 157.022C204.597 156.991 204.616 156.963 204.64 156.94C205.92 155.81 207.26 154.69 208.64 153.6C208.69 153.558 208.754 153.534 208.82 153.534C208.886 153.534 208.95 153.558 209 153.6C209.046 153.648 209.072 153.713 209.072 153.78C209.072 153.847 209.046 153.912 209 153.96C207.66 155.03 206.33 156.15 205.05 157.28C205.027 157.321 204.994 157.356 204.954 157.381C204.913 157.405 204.867 157.419 204.82 157.42V157.38ZM210.41 152.77C210.371 152.772 210.332 152.763 210.297 152.746C210.262 152.728 210.232 152.702 210.21 152.67C210.186 152.648 210.167 152.62 210.154 152.59C210.141 152.56 210.134 152.528 210.134 152.495C210.134 152.462 210.141 152.43 210.154 152.4C210.167 152.37 210.186 152.342 210.21 152.32C211.59 151.26 212.99 150.23 214.39 149.25C214.417 149.227 214.448 149.209 214.482 149.199C214.515 149.189 214.551 149.186 214.586 149.19C214.621 149.195 214.655 149.207 214.685 149.225C214.715 149.244 214.741 149.268 214.761 149.297C214.781 149.326 214.794 149.36 214.8 149.394C214.807 149.429 214.805 149.465 214.797 149.499C214.788 149.533 214.773 149.565 214.751 149.593C214.729 149.621 214.701 149.644 214.67 149.66C213.28 150.66 211.89 151.66 210.52 152.72C210.491 152.758 210.453 152.789 210.41 152.81V152.77ZM216.28 148.53C216.239 148.53 216.198 148.519 216.162 148.5C216.125 148.481 216.094 148.454 216.07 148.42C216.051 148.393 216.038 148.362 216.032 148.329C216.025 148.296 216.025 148.263 216.031 148.23C216.038 148.198 216.051 148.167 216.07 148.139C216.088 148.112 216.112 148.088 216.14 148.07C217.58 147.07 219.06 146.17 220.51 145.29C220.569 145.257 220.638 145.247 220.703 145.264C220.768 145.281 220.825 145.323 220.86 145.38C220.893 145.437 220.902 145.505 220.885 145.568C220.868 145.632 220.827 145.687 220.77 145.72C219.32 146.59 217.85 147.52 216.42 148.49C216.383 148.531 216.334 148.56 216.28 148.57V148.53ZM222.43 144.72C222.385 144.719 222.341 144.707 222.303 144.684C222.264 144.661 222.232 144.629 222.21 144.59C222.194 144.561 222.184 144.529 222.181 144.497C222.177 144.464 222.18 144.431 222.189 144.399C222.199 144.368 222.214 144.338 222.235 144.313C222.255 144.287 222.281 144.266 222.31 144.25C223.83 143.38 225.37 142.56 226.88 141.81C226.94 141.781 227.009 141.777 227.072 141.797C227.135 141.818 227.188 141.862 227.22 141.92C227.235 141.95 227.244 141.983 227.246 142.017C227.248 142.05 227.244 142.084 227.232 142.116C227.221 142.147 227.204 142.176 227.181 142.201C227.158 142.226 227.131 142.246 227.1 142.26C225.6 143.01 224.1 143.82 222.55 144.68C222.522 144.721 222.479 144.75 222.43 144.76V144.72ZM228.86 141.39C228.811 141.392 228.763 141.378 228.721 141.351C228.68 141.324 228.648 141.286 228.63 141.24C228.603 141.18 228.6 141.112 228.622 141.05C228.645 140.989 228.691 140.938 228.75 140.91C230.33 140.18 231.94 139.49 233.52 138.91C233.582 138.89 233.65 138.894 233.709 138.922C233.769 138.95 233.815 138.999 233.84 139.06C233.853 139.09 233.859 139.122 233.859 139.155C233.859 139.188 233.852 139.22 233.839 139.25C233.826 139.28 233.807 139.307 233.783 139.329C233.759 139.352 233.731 139.369 233.7 139.38C232.13 139.99 230.54 140.67 228.96 141.38L228.86 141.39ZM235.55 138.63C235.499 138.63 235.448 138.615 235.406 138.586C235.363 138.558 235.33 138.517 235.31 138.47C235.299 138.438 235.295 138.405 235.297 138.372C235.299 138.339 235.308 138.306 235.323 138.276C235.337 138.246 235.358 138.22 235.383 138.198C235.409 138.177 235.438 138.16 235.47 138.15C237.11 137.56 238.77 137.03 240.41 136.58C240.441 136.571 240.473 136.568 240.505 136.572C240.537 136.576 240.568 136.586 240.596 136.601C240.624 136.617 240.648 136.639 240.668 136.664C240.688 136.69 240.702 136.719 240.71 136.75C240.719 136.782 240.722 136.815 240.718 136.847C240.715 136.88 240.705 136.911 240.689 136.94C240.673 136.969 240.652 136.994 240.626 137.015C240.601 137.035 240.571 137.051 240.54 137.06C238.91 137.51 237.26 138.06 235.63 138.62L235.55 138.63Z" fill="white"/>
<path d="M242.47 136.59C242.415 136.588 242.362 136.568 242.319 136.534C242.276 136.5 242.245 136.453 242.23 136.4C242.221 136.368 242.219 136.335 242.223 136.303C242.227 136.27 242.238 136.239 242.255 136.211C242.272 136.183 242.294 136.159 242.321 136.14C242.348 136.12 242.378 136.107 242.41 136.1C242.91 135.97 243.41 135.86 243.93 135.74C243.54 135.62 243.05 135.45 242.46 135.24C242.399 135.216 242.351 135.17 242.324 135.11C242.297 135.051 242.294 134.984 242.317 134.922C242.339 134.861 242.384 134.811 242.442 134.783C242.501 134.754 242.568 134.75 242.63 134.77C244.1 135.3 244.97 135.55 244.98 135.55C245.037 135.562 245.087 135.592 245.124 135.637C245.16 135.681 245.18 135.737 245.18 135.795C245.18 135.853 245.16 135.909 245.124 135.953C245.087 135.998 245.037 136.029 244.98 136.04C244.16 136.2 243.34 136.39 242.54 136.58L242.47 136.59Z" fill="white"/>
<path d="M240.79 134.59H240.7C239.27 134.03 237.82 133.4 236.39 132.72C236.359 132.706 236.332 132.686 236.309 132.661C236.286 132.637 236.269 132.607 236.258 132.576C236.246 132.544 236.242 132.51 236.244 132.477C236.246 132.443 236.255 132.41 236.27 132.38C236.3 132.322 236.351 132.278 236.412 132.256C236.473 132.234 236.54 132.235 236.6 132.26C238.02 132.94 239.47 133.57 240.89 134.13C240.921 134.141 240.949 134.158 240.973 134.181C240.997 134.203 241.016 134.23 241.029 134.26C241.042 134.29 241.049 134.322 241.049 134.355C241.049 134.388 241.043 134.42 241.03 134.45C241.007 134.494 240.973 134.53 240.93 134.555C240.888 134.58 240.839 134.592 240.79 134.59V134.59ZM234.79 131.9C234.751 131.909 234.71 131.909 234.67 131.9C233.27 131.19 231.88 130.43 230.54 129.65C230.483 129.615 230.441 129.559 230.424 129.493C230.407 129.428 230.417 129.359 230.45 129.3C230.487 129.244 230.543 129.204 230.608 129.188C230.672 129.171 230.741 129.179 230.8 129.21C232.12 129.99 233.5 130.75 234.9 131.45C234.958 131.482 235.002 131.535 235.023 131.598C235.043 131.661 235.039 131.73 235.01 131.79C234.988 131.824 234.959 131.851 234.924 131.87C234.889 131.89 234.85 131.9 234.81 131.9H234.79ZM229.07 128.68C229.024 128.689 228.976 128.689 228.93 128.68C227.59 127.84 226.28 126.95 225.03 126.04C224.977 126 224.942 125.941 224.933 125.875C224.923 125.81 224.94 125.743 224.98 125.69C225.02 125.637 225.079 125.602 225.145 125.593C225.21 125.583 225.277 125.6 225.33 125.64C226.56 126.54 227.87 127.42 229.2 128.25C229.256 128.287 229.295 128.344 229.31 128.409C229.325 128.474 229.314 128.543 229.28 128.6C229.23 128.651 229.161 128.68 229.09 128.68H229.07ZM223.68 124.92C223.631 124.933 223.579 124.933 223.53 124.92C222.27 123.92 221.06 122.92 219.93 121.92C219.906 121.897 219.887 121.869 219.873 121.838C219.86 121.807 219.853 121.774 219.853 121.74C219.853 121.706 219.86 121.673 219.873 121.642C219.887 121.611 219.906 121.583 219.93 121.56C219.977 121.514 220.04 121.489 220.105 121.489C220.17 121.489 220.233 121.514 220.28 121.56C221.4 122.56 222.6 123.56 223.85 124.56C223.874 124.582 223.893 124.61 223.906 124.64C223.919 124.67 223.926 124.702 223.926 124.735C223.926 124.768 223.919 124.8 223.906 124.83C223.893 124.86 223.874 124.888 223.85 124.91C223.803 124.93 223.75 124.934 223.7 124.92H223.68ZM218.74 120.6C218.708 120.601 218.677 120.595 218.648 120.583C218.618 120.571 218.592 120.553 218.57 120.53C217.44 119.41 216.36 118.25 215.37 117.07C215.346 117.048 215.327 117.02 215.314 116.99C215.301 116.96 215.294 116.928 215.294 116.895C215.294 116.862 215.301 116.83 215.314 116.8C215.327 116.77 215.346 116.742 215.37 116.72C215.417 116.674 215.48 116.649 215.545 116.649C215.61 116.649 215.673 116.674 215.72 116.72C216.72 117.89 217.77 119.04 218.89 120.14C218.914 120.163 218.933 120.191 218.947 120.222C218.96 120.253 218.966 120.286 218.966 120.32C218.966 120.354 218.96 120.387 218.947 120.418C218.933 120.449 218.914 120.477 218.89 120.5C218.86 120.548 218.814 120.583 218.76 120.6H218.74Z" fill="white"/>
<path d="M214.39 115.7C214.353 115.7 214.316 115.691 214.283 115.674C214.249 115.656 214.221 115.631 214.2 115.6C213.68 114.94 213.2 114.26 212.71 113.6C212.691 113.573 212.677 113.543 212.67 113.511C212.663 113.478 212.662 113.445 212.667 113.413C212.673 113.38 212.685 113.349 212.703 113.321C212.72 113.293 212.743 113.269 212.77 113.25C212.797 113.231 212.827 113.217 212.859 113.21C212.892 113.203 212.925 113.202 212.957 113.208C212.99 113.213 213.021 113.225 213.049 113.243C213.077 113.26 213.101 113.283 213.12 113.31C213.59 113.98 214.12 114.66 214.59 115.31C214.614 115.332 214.633 115.36 214.646 115.39C214.659 115.42 214.666 115.452 214.666 115.485C214.666 115.518 214.659 115.55 214.646 115.58C214.633 115.61 214.614 115.638 214.59 115.66C214.53 115.696 214.459 115.71 214.39 115.7V115.7Z" fill="white"/>
<path d="M245.82 132.13C245.82 132.13 244.63 134.72 245.42 140.25C245.182 139.806 244.779 139.474 244.299 139.324C243.818 139.175 243.298 139.22 242.85 139.45C242.85 139.45 243.24 136.45 240.85 135.69C240.85 135.69 244.41 135 243.18 132.13C243.2 132.13 244.23 134.41 245.82 132.13Z" fill="white"/>
<path d="M250.88 192.1C249.3 192.1 247.7 192.05 246.1 191.96C225.198 190.72 205.623 181.307 191.603 165.754C177.584 150.202 170.244 129.759 171.171 108.841C172.098 87.9229 181.216 68.2089 196.557 53.9575C211.897 39.7061 232.228 32.0612 253.157 32.6742C274.087 33.2872 293.935 42.1089 308.415 57.2337C322.895 72.3585 330.844 92.5723 330.545 113.509C330.246 134.445 321.723 154.424 306.817 169.129C291.911 183.834 271.819 192.085 250.88 192.1ZM250.78 33.67C230.135 33.4105 210.215 41.2731 195.313 55.563C180.411 69.853 171.721 89.426 171.115 110.063C170.509 130.701 178.036 150.75 192.073 165.89C206.111 181.03 225.536 190.048 246.16 191C247.74 191.09 249.32 191.14 250.88 191.14C271.373 191.169 291.069 183.203 305.782 168.937C320.494 154.672 329.062 135.23 329.665 114.746C330.268 94.2618 322.858 74.35 309.011 59.2435C295.163 44.137 275.969 35.027 255.51 33.85C253.93 33.72 252.35 33.67 250.78 33.67Z" fill="#4B46EC"/>
<path d="M111.64 74.86C111.64 75.0044 111.597 75.1455 111.517 75.2656C111.437 75.3856 111.323 75.4792 111.189 75.5344C111.056 75.5897 110.909 75.6041 110.768 75.576C110.626 75.5478 110.496 75.4783 110.394 75.3762C110.292 75.2741 110.222 75.144 110.194 75.0024C110.166 74.8608 110.18 74.714 110.236 74.5806C110.291 74.4473 110.384 74.3332 110.504 74.253C110.624 74.1728 110.766 74.13 110.91 74.13C111.104 74.13 111.289 74.2069 111.426 74.3438C111.563 74.4807 111.64 74.6664 111.64 74.86Z" fill="#4B46EC"/>
</svg>
