<svg width="388" height="331" viewBox="0 0 388 331" fill="none" xmlns="http://www.w3.org/2000/svg">
<path d="M193.89 330.85C300.972 330.85 387.78 325.781 387.78 319.53C387.78 313.278 300.972 308.21 193.89 308.21C86.8075 308.21 0 313.278 0 319.53C0 325.781 86.8075 330.85 193.89 330.85Z" fill="#F5F5F5"/>
<path d="M44.22 133.819H220.02V139.059C220.02 148.533 216.257 157.619 209.558 164.317C202.859 171.016 193.774 174.779 184.3 174.779H44.22V133.779V133.819Z" fill="#4B46EC"/>
<path opacity="0.4" d="M44.22 133.819H220.02V139.059C220.02 148.533 216.257 157.619 209.558 164.317C202.859 171.016 193.774 174.779 184.3 174.779H44.22V133.779V133.819Z" fill="white"/>
<path opacity="0.2" d="M81.55 133.819H44.22V174.779H81.55V133.819Z" fill="#4B46EC"/>
<path d="M92.6 130.759H111.31C111.646 130.753 111.981 130.813 112.294 130.938C112.606 131.062 112.891 131.247 113.131 131.483C113.372 131.718 113.563 131.999 113.693 132.31C113.823 132.62 113.89 132.953 113.89 133.289V133.819H90.07V133.289C90.07 132.618 90.3366 131.975 90.811 131.501C91.2855 131.026 91.929 130.759 92.6 130.759Z" fill="#4B46EC"/>
<path d="M108.66 91.0995H95.2401V130.759H108.66V91.0995Z" fill="#4B46EC"/>
<path d="M114.11 88.5395H95.54C94.9878 88.5395 94.54 88.9872 94.54 89.5395V90.0995C94.54 90.6518 94.9878 91.0995 95.54 91.0995H114.11C114.662 91.0995 115.11 90.6518 115.11 90.0995V89.5395C115.11 88.9872 114.662 88.5395 114.11 88.5395Z" fill="#4B46EC"/>
<path d="M141.62 97.9795V103.039H101.92V93.7995H137.44C138.549 93.7995 139.612 94.2399 140.396 95.0238C141.18 95.8077 141.62 96.8709 141.62 97.9795Z" fill="#4B46EC"/>
<path d="M126.59 103.039V104.509H140.74V103.039H126.59Z" fill="#4B46EC"/>
<path d="M138.79 133.829V104.52H128.55V133.829H138.79Z" fill="#4B46EC"/>
<path opacity="0.8" d="M138.79 133.829V104.52H128.55V133.829H138.79Z" fill="white"/>
<path opacity="0.2" d="M141.62 103.039V97.9795C141.62 96.8709 141.18 95.8077 140.396 95.0238C139.612 94.2399 138.549 93.7995 137.44 93.7995H108.66V91.0995H114.11C114.375 91.0995 114.63 90.9941 114.817 90.8066C115.005 90.6191 115.11 90.3647 115.11 90.0995V89.5395C115.11 89.2743 115.005 89.0199 114.817 88.8324C114.63 88.6448 114.375 88.5395 114.11 88.5395H95.54C95.2748 88.5395 95.0204 88.6448 94.8329 88.8324C94.6454 89.0199 94.54 89.2743 94.54 89.5395V90.0995C94.54 90.3647 94.6454 90.6191 94.8329 90.8066C95.0204 90.9941 95.2748 91.0995 95.54 91.0995H95.24V130.759H92.6C91.929 130.759 91.2855 131.026 90.811 131.501C90.3366 131.975 90.07 132.618 90.07 133.289V133.819H113.89V133.289C113.89 132.618 113.623 131.975 113.149 131.501C112.675 131.026 112.031 130.759 111.36 130.759H108.71V103.039H141.62Z" fill="white"/>
<path d="M103.19 103.039L108.66 108.519V103.039H103.19Z" fill="#4B46EC"/>
<path d="M103.19 91.0995L108.66 92.4495V91.0995H103.19Z" fill="#4B46EC"/>
<path d="M70.11 104.519H55.67C53.6431 104.519 52 106.163 52 108.189V130.159C52 132.186 53.6431 133.829 55.67 133.829H70.11C72.1369 133.829 73.78 132.186 73.78 130.159V108.189C73.78 106.163 72.1369 104.519 70.11 104.519Z" fill="#4B46EC"/>
<path d="M68.45 102.149V104.509H57.34V102.149C57.34 101.781 57.4865 101.427 57.7471 101.167C58.0078 100.906 58.3614 100.759 58.73 100.759H67.06C67.2426 100.759 67.4233 100.795 67.5919 100.865C67.7606 100.935 67.9138 101.038 68.0429 101.167C68.172 101.296 68.2743 101.449 68.3442 101.618C68.414 101.786 68.45 101.967 68.45 102.149V102.149Z" fill="#263238"/>
<path opacity="0.5" d="M59.18 111.43H73.78V126.9H59.18C58.9467 126.9 58.7228 126.807 58.5578 126.642C58.3928 126.477 58.3 126.253 58.3 126.02V112.29C58.3053 112.06 58.4003 111.841 58.5648 111.68C58.7292 111.519 58.9501 111.429 59.18 111.43Z" fill="white"/>
<path d="M61.0001 99.1195C60.7826 99.1195 60.574 99.2059 60.4202 99.3597C60.2664 99.5135 60.1801 99.722 60.1801 99.9395V100.76H73.7801C73.9975 100.76 74.2061 100.673 74.3599 100.519C74.5137 100.366 74.6001 100.157 74.6001 99.9395L61.0001 99.1195Z" fill="#263238"/>
<path d="M227.09 71.7595C225.89 74.6795 224.62 77.3395 223.29 80.0795C221.96 82.8195 220.55 85.4795 219.07 88.1295C216.073 93.5648 212.632 98.7426 208.78 103.61C207.78 104.84 206.7 106.07 205.53 107.27C205.24 107.57 204.95 107.87 204.64 108.16L204.18 108.61L203.95 108.829L203.67 109.09C202.873 109.781 202.016 110.4 201.11 110.939C199.706 111.779 198.261 112.546 196.78 113.24C195.38 113.92 193.98 114.53 192.58 115.11C187.041 117.418 181.363 119.379 175.58 120.98L173.06 115.17C178.06 112.05 183.06 109.06 187.97 106.07L191.56 103.82C192.72 103.08 193.85 102.29 194.78 101.57C195.119 101.335 195.428 101.06 195.7 100.75L196.28 100.1C196.49 99.8795 196.69 99.6295 196.9 99.3895C197.72 98.3895 198.51 97.3895 199.28 96.2895C200.85 94.1195 202.34 91.7895 203.75 89.3895C205.16 86.9895 206.54 84.5295 207.85 82.0195C209.16 79.5095 210.45 76.9595 211.72 74.4095C212.99 71.8595 214.19 69.2095 215.33 66.7495L227.09 71.7595Z" fill="#FF8B7B"/>
<path d="M175.39 114.629L165.81 115.949L168.72 125.099C168.72 125.099 176.22 125.099 177.72 119.009L175.39 114.629Z" fill="#FF8B7B"/>
<path d="M159.23 121.919L162.01 125.459C162.236 125.749 162.539 125.968 162.884 126.092C163.229 126.215 163.602 126.239 163.96 126.159L168.72 125.099L165.81 115.949L159.87 118.949C159.616 119.087 159.395 119.278 159.222 119.508C159.049 119.739 158.927 120.005 158.867 120.287C158.806 120.569 158.807 120.861 158.87 121.143C158.932 121.425 159.055 121.69 159.23 121.919Z" fill="#FF8B7B"/>
<path d="M197.89 133.829H131.24C131.24 131.575 132.136 129.413 133.73 127.819C135.324 126.225 137.486 125.329 139.74 125.329C139.74 123.078 140.634 120.918 142.227 119.326C143.819 117.734 145.978 116.839 148.23 116.839C148.456 116.825 148.684 116.825 148.91 116.839C149.73 114.364 151.284 112.196 153.366 110.626C155.448 109.055 157.959 108.156 160.564 108.047C163.17 107.939 165.747 108.626 167.952 110.018C170.158 111.41 171.887 113.441 172.91 115.839C173.186 115.825 173.464 115.825 173.74 115.839C175.348 115.839 176.929 116.246 178.337 117.022C179.745 117.799 180.933 118.919 181.79 120.279C182.96 119.568 184.298 119.182 185.667 119.16C187.036 119.138 188.386 119.481 189.578 120.155C190.77 120.828 191.76 121.807 192.448 122.991C193.136 124.175 193.495 125.52 193.49 126.889C193.505 127.123 193.505 127.356 193.49 127.589C194.702 128.158 195.745 129.032 196.517 130.127C197.288 131.221 197.761 132.497 197.89 133.829V133.829Z" fill="#4B46EC"/>
<path opacity="0.7" d="M197.89 133.829H131.24C131.24 131.575 132.136 129.413 133.73 127.819C135.324 126.225 137.486 125.329 139.74 125.329C139.74 123.078 140.634 120.918 142.227 119.326C143.819 117.734 145.978 116.839 148.23 116.839C148.456 116.825 148.684 116.825 148.91 116.839C149.73 114.364 151.284 112.196 153.366 110.626C155.448 109.055 157.959 108.156 160.564 108.047C163.17 107.939 165.747 108.626 167.952 110.018C170.158 111.41 171.887 113.441 172.91 115.839C173.186 115.825 173.464 115.825 173.74 115.839C175.348 115.839 176.929 116.246 178.337 117.022C179.745 117.799 180.933 118.919 181.79 120.279C182.96 119.568 184.298 119.182 185.667 119.16C187.036 119.138 188.386 119.481 189.578 120.155C190.77 120.828 191.76 121.807 192.448 122.991C193.136 124.175 193.495 125.52 193.49 126.889C193.505 127.123 193.505 127.356 193.49 127.589C194.702 128.158 195.745 129.032 196.517 130.127C197.288 131.221 197.761 132.497 197.89 133.829V133.829Z" fill="white"/>
<path d="M211.02 310.129C211.05 310.111 211.076 310.087 211.095 310.057C211.114 310.028 211.126 309.994 211.13 309.959C211.13 309.917 211.116 309.876 211.091 309.842C211.066 309.807 211.03 309.782 210.99 309.769C210.59 309.619 206.99 308.379 206.06 309.079C205.972 309.147 205.902 309.235 205.857 309.337C205.811 309.438 205.792 309.549 205.8 309.659V309.659C205.805 309.84 205.852 310.017 205.939 310.175C206.026 310.334 206.15 310.469 206.3 310.569C207.3 311.249 209.68 310.569 210.99 310.149L211.02 310.129ZM206.36 309.359C206.96 309.059 208.88 309.499 210.29 309.949C208.49 310.509 207.1 310.619 206.53 310.239C206.429 310.173 206.347 310.082 206.289 309.976C206.232 309.869 206.201 309.75 206.2 309.629C206.193 309.586 206.198 309.54 206.216 309.5C206.234 309.459 206.263 309.424 206.3 309.399L206.36 309.359Z" fill="#4B46EC"/>
<path d="M209.38 306.869C209.213 306.761 209.026 306.688 208.83 306.655C208.634 306.622 208.433 306.631 208.24 306.679C207.7 306.809 207.59 307.099 207.58 307.329C207.58 308.329 209.8 309.839 210.87 310.149C210.893 310.162 210.919 310.168 210.945 310.168C210.971 310.168 210.997 310.162 211.02 310.149C211.02 310.149 211.02 310.149 211.07 310.149C211.091 310.123 211.107 310.093 211.115 310.06C211.124 310.027 211.126 309.993 211.12 309.959C211.1 309.819 210.57 307.589 209.38 306.869ZM207.98 307.339C207.98 307.339 207.98 307.209 208.14 307.139C208.202 307.102 208.269 307.075 208.34 307.059H208.42C208.684 307.019 208.955 307.076 209.18 307.219C209.898 307.864 210.404 308.711 210.63 309.649C209.52 309.159 207.97 307.919 207.98 307.339V307.339Z" fill="#4B46EC"/>
<path d="M218.95 310.889L210.53 310.749L211.05 291.189L219.47 291.319L218.95 310.889Z" fill="#FF8B7B"/>
<path d="M210.43 309.779L219.63 309.919C219.792 309.921 219.947 309.982 220.067 310.091C220.187 310.2 220.263 310.349 220.28 310.509L221.08 318.029C221.095 318.22 221.071 318.412 221.007 318.592C220.944 318.773 220.844 318.938 220.713 319.078C220.582 319.217 220.423 319.327 220.247 319.402C220.071 319.476 219.881 319.513 219.69 319.509C216.38 319.399 211.61 319.129 207.44 319.069C202.57 318.989 203.04 319.189 197.32 319.069C193.87 319.019 193.32 315.5 194.79 315.21C201.55 313.87 202.23 313.799 208.33 310.369C208.966 309.993 209.69 309.789 210.43 309.779V309.779Z" fill="#263238"/>
<path opacity="0.2" d="M211.06 291.189L210.78 301.279L219.2 301.409L219.48 291.329L211.06 291.189Z" fill="black"/>
<path d="M229.23 24.9495C229.55 31.2595 228.99 43.6495 233.58 47.6395C230.43 51.0495 225.22 53.7695 217.89 54.2195C210.56 54.6695 212.23 50.5695 214 47.8695C220.8 46.0495 219.58 40.0195 218.07 35.2695L229.23 24.9495Z" fill="#FF8B7B"/>
<path d="M234.01 45.8195C223.87 45.7095 211.21 46.9495 204.34 49.1095C203.458 49.3873 202.682 49.9277 202.115 50.6587C201.549 51.3896 201.219 52.2761 201.17 53.1995C200.76 60.8395 199.65 83.8095 198.7 123.03L243.82 123.759C243.533 102.816 244.716 81.8777 247.36 61.0995C247.595 59.1989 247.426 57.27 246.865 55.439C246.304 53.608 245.362 51.9162 244.102 50.4739C242.842 49.0317 241.292 47.8717 239.553 47.0696C237.814 46.2676 235.925 45.8416 234.01 45.8195Z" fill="#4B46EC"/>
<path d="M210.59 63.4795C209.66 66.3095 208.59 68.9095 207.59 71.5995C206.59 74.2895 205.38 76.8895 204.21 79.5095C201.81 84.827 199.064 89.9813 195.99 94.9395C195.58 95.5695 195.19 96.1995 194.76 96.8295L193.45 98.6995L193.13 99.1695C193 99.3395 192.77 99.6395 192.59 99.8595C192.41 100.079 192.24 100.259 192.05 100.469C191.86 100.679 191.71 100.839 191.55 100.989C190.9 101.649 190.3 102.169 189.69 102.689C187.399 104.563 185.009 106.312 182.53 107.929C177.769 111.074 172.827 113.936 167.73 116.499L164.13 111.289C168.18 107.459 172.35 103.729 176.37 100.039C178.37 98.1895 180.37 96.3295 182.07 94.5295C182.47 94.0895 182.89 93.6395 183.17 93.2695C183.244 93.189 183.311 93.102 183.37 93.0095C183.37 92.9495 183.51 92.8395 183.5 92.8095C183.523 92.7577 183.55 92.7076 183.58 92.6595L183.83 92.2495L184.83 90.6095C185.15 90.0495 185.45 89.4695 185.76 88.8995C188.25 84.3195 190.45 79.3595 192.56 74.3795C193.62 71.8795 194.62 69.3795 195.65 66.8295C196.68 64.2795 197.65 61.7095 198.56 59.2695L210.59 63.4795Z" fill="#FF8B7B"/>
<path d="M214.67 53.7195C218.67 60.7995 207.9 84.4595 207.9 84.4595L189.65 77.4595C189.65 77.4595 191.81 66.0595 196.22 56.8195C200.75 47.3595 210.25 45.9395 214.67 53.7195Z" fill="#4B46EC"/>
<path d="M166.3 110.289L157.16 113.449L161.79 121.859C161.79 121.859 169.14 120.369 169.47 114.129L166.3 110.289Z" fill="#FF8B7B"/>
<path d="M151.89 120.6L155.3 123.53C155.577 123.77 155.917 123.926 156.28 123.981C156.643 124.036 157.014 123.987 157.35 123.84L161.81 121.84L157.18 113.43L151.89 117.6C151.668 117.781 151.489 118.01 151.367 118.27C151.244 118.529 151.18 118.813 151.18 119.1C151.18 119.386 151.244 119.67 151.367 119.929C151.489 120.189 151.668 120.418 151.89 120.6V120.6Z" fill="#FF8B7B"/>
<path d="M206.66 21.5995C206.76 22.2695 206.48 22.8695 206.04 22.9295C205.6 22.9895 205.16 22.4895 205.04 21.8195C204.92 21.1495 205.22 20.5495 205.66 20.4895C206.1 20.4295 206.57 20.9295 206.66 21.5995Z" fill="#263238"/>
<path d="M207.45 21.3795C206.945 23.5424 206.144 25.6254 205.07 27.5695C205.577 27.8327 206.136 27.9841 206.707 28.0134C207.277 28.0428 207.848 27.9494 208.38 27.7395L207.45 21.3795Z" fill="#FF5652"/>
<path d="M208.13 17.6895C208.194 17.6701 208.252 17.6358 208.3 17.5895C208.338 17.5523 208.368 17.5079 208.388 17.459C208.409 17.41 208.419 17.3575 208.419 17.3045C208.419 17.2514 208.409 17.1989 208.388 17.15C208.368 17.1011 208.338 17.0567 208.3 17.0195C207.86 16.5602 207.316 16.2126 206.714 16.0057C206.112 15.7987 205.47 15.7383 204.84 15.8295C204.737 15.8511 204.646 15.9127 204.588 16.0007C204.53 16.0887 204.509 16.1961 204.53 16.2995C204.541 16.3516 204.562 16.4011 204.592 16.445C204.622 16.4889 204.66 16.5264 204.705 16.5553C204.75 16.5842 204.8 16.6038 204.852 16.6131C204.904 16.6224 204.958 16.6212 205.01 16.6095C205.512 16.5504 206.02 16.6101 206.494 16.7838C206.969 16.9575 207.395 17.2404 207.74 17.6095C207.792 17.6557 207.856 17.6874 207.924 17.7014C207.993 17.7155 208.064 17.7114 208.13 17.6895V17.6895Z" fill="#263238"/>
<path d="M229 15.4195C229.7 23.7595 230.53 28.5995 227 33.4195C221.63 40.6595 210.86 38.2695 207.68 30.2895C204.82 23.1095 204.17 10.6895 211.8 6.2895C213.488 5.32564 215.392 4.80443 217.335 4.77439C219.278 4.74434 221.198 5.20645 222.914 6.11768C224.631 7.02891 226.089 8.35965 227.153 9.98603C228.217 11.6124 228.853 13.4816 229 15.4195V15.4195Z" fill="#FF8B7B"/>
<path d="M212.68 25.4995C211.176 25.3313 209.717 24.8801 208.38 24.1695C208.38 24.1695 207.38 17.6995 210.53 15.7895C208.14 15.7895 205.42 14.8695 204.02 12.9195C202.62 10.9695 202.55 5.91949 206.14 2.78949C209.73 -0.340508 213.76 -0.830508 219.14 1.28949C222.54 2.61949 228.14 3.11949 229.57 0.019495C232.81 1.66949 234.06 4.57949 232.52 6.45949C233.252 6.54866 233.995 6.47476 234.695 6.24309C235.395 6.01142 236.036 5.62772 236.57 5.11949C236.57 5.11949 239.13 11.1195 233.77 14.4595C236.77 14.7495 238.02 13.3695 238.02 13.3695C238.02 13.3695 238.14 20.4695 233.81 23.5095C236.98 23.7495 238.02 22.5095 238.02 22.5095C238.02 22.5095 236.6 30.3795 226.31 32.2095C218.67 33.5295 213.1 30.2095 212.68 25.4995Z" fill="#263238"/>
<path d="M266.77 307.289C266.805 307.275 266.835 307.252 266.858 307.222C266.881 307.192 266.896 307.157 266.9 307.119C266.905 307.079 266.895 307.038 266.873 307.003C266.851 306.969 266.819 306.943 266.78 306.93C266.39 306.75 262.9 305.229 261.91 305.859C261.818 305.918 261.742 306 261.689 306.096C261.637 306.192 261.61 306.3 261.61 306.409V306.409C261.603 306.59 261.638 306.771 261.712 306.936C261.787 307.101 261.899 307.246 262.04 307.359C263.04 308.119 265.41 307.65 266.75 307.3L266.77 307.289ZM262.2 306.159C262.82 305.899 264.7 306.499 266.07 307.059C264.23 307.469 262.84 307.469 262.29 307.059C262.196 306.985 262.121 306.889 262.072 306.779C262.023 306.669 262.002 306.549 262.01 306.43C262.01 306.386 262.021 306.343 262.042 306.304C262.063 306.266 262.093 306.233 262.13 306.21L262.2 306.159Z" fill="#4B46EC"/>
<path d="M265.41 303.879C265.083 303.645 264.677 303.549 264.28 303.609C263.73 303.689 263.59 303.99 263.57 304.21C263.47 305.21 265.57 306.879 266.62 307.279C266.669 307.296 266.721 307.296 266.77 307.279H266.82C266.848 307.257 266.87 307.228 266.884 307.194C266.898 307.161 266.903 307.125 266.9 307.089C266.89 306.959 266.53 304.699 265.41 303.879ZM263.97 304.249C263.97 304.249 263.97 304.129 264.14 304.059L264.34 303.999H264.51C264.748 304 264.979 304.077 265.17 304.219C265.844 304.909 266.281 305.795 266.42 306.749C265.35 306.189 263.89 304.829 263.97 304.289V304.249Z" fill="#4B46EC"/>
<path d="M275.26 306.419L267.13 308.539L261.64 289.689L269.76 287.579L275.26 306.419Z" fill="#FF8B7B"/>
<path d="M266.55 306.909L275.45 304.589C275.608 304.546 275.776 304.563 275.922 304.637C276.068 304.711 276.181 304.837 276.24 304.99L279.02 311.99C279.085 312.169 279.111 312.36 279.098 312.55C279.085 312.741 279.033 312.927 278.945 313.096C278.856 313.265 278.734 313.414 278.585 313.533C278.436 313.653 278.264 313.74 278.08 313.789C274.86 314.569 273.79 314.589 269.75 315.639C265.03 316.869 264.22 319.429 258.5 319.479C255.04 319.479 254.41 316.03 255.88 315.68C260.54 314.59 263.19 310.529 264.69 308.049C265.145 307.45 265.809 307.043 266.55 306.909V306.909Z" fill="#263238"/>
<path opacity="0.2" d="M261.64 289.699L264.47 299.409L272.6 297.299L269.77 287.579L261.64 289.699Z" fill="black"/>
<path d="M254.26 205.689C251.39 177.949 250.26 133.809 243.82 123.759L214 123.289C214 123.289 229.3 183.229 235.12 208.479C241.12 234.739 260.36 295.669 260.36 295.669L273.51 292.219C273.51 292.219 263.19 235.019 254.26 205.689Z" fill="#263238"/>
<path opacity="0.2" d="M226.73 147.829L223.42 145.829L221.84 144.829C222.84 151.199 223.9 158.429 224.84 166.279L233.13 200.089C235.89 180.789 235.94 160.439 226.73 147.829Z" fill="black"/>
<path d="M216.07 23.7595C216.03 24.6369 215.817 25.4976 215.442 26.2922C215.068 27.0868 214.541 27.7996 213.89 28.3895C212.11 29.9495 210.18 28.6095 209.81 26.3895C209.47 24.3895 209.99 21.1995 212.2 20.4895C212.682 20.3382 213.195 20.3113 213.69 20.4111C214.186 20.5109 214.648 20.7343 215.034 21.0605C215.42 21.3867 215.717 21.8051 215.899 22.277C216.08 22.7488 216.139 23.2588 216.07 23.7595V23.7595Z" fill="#FF8B7B"/>
<path d="M224.89 206.759C228.95 173.579 233.61 144.839 230.54 123.549L198.76 123.029C198.76 123.029 202.76 184.299 204.21 209.959C205.67 236.639 207.71 299.279 207.71 299.279L222 299.499C222 299.499 226.83 240.229 224.89 206.759Z" fill="#263238"/>
<path d="M206.8 299.59L223.77 299.85L224.73 294.35L205.81 293.77L206.8 299.59Z" fill="#4B46EC"/>
<path d="M259.3 298.86L275.73 294.58L275.18 289.02L256.79 293.52L259.3 298.86Z" fill="#4B46EC"/>
<path d="M329.35 116.12H353.08C353.961 116.12 354.805 116.469 355.428 117.092C356.05 117.715 356.4 118.559 356.4 119.439V212.29H329.4V116.12H329.35Z" fill="#4B46EC"/>
<path opacity="0.3" d="M329.35 116.12H353.08C353.961 116.12 354.805 116.469 355.428 117.092C356.05 117.715 356.4 118.559 356.4 119.439V212.29H329.4V116.12H329.35Z" fill="black"/>
<path d="M379.24 122.479C379.24 126.359 376.69 129.479 373.56 129.479C370.43 129.479 367.87 126.329 367.87 122.479C367.87 118.629 370.42 115.479 373.56 115.479C376.7 115.479 379.24 118.599 379.24 122.479Z" fill="#4B46EC"/>
<path d="M298.89 122.479C298.89 126.359 296.34 129.479 293.2 129.479C290.06 129.479 287.52 126.329 287.52 122.479C287.52 118.629 290.07 115.479 293.2 115.479C296.33 115.479 298.89 118.599 298.89 122.479Z" fill="#4B46EC"/>
<path d="M372.89 125.099H279.83C279.136 125.097 278.471 124.82 277.98 124.329C277.49 123.838 277.213 123.174 277.21 122.479V122.479C277.213 121.785 277.49 121.121 277.98 120.63C278.471 120.139 279.136 119.862 279.83 119.859H372.89C373.584 119.862 374.249 120.139 374.74 120.63C375.231 121.121 375.507 121.785 375.51 122.479V122.479C375.507 123.174 375.231 123.838 374.74 124.329C374.249 124.82 373.584 125.097 372.89 125.099V125.099Z" fill="#4B46EC"/>
<path opacity="0.6" d="M372.89 125.099H279.83C279.136 125.097 278.471 124.82 277.98 124.329C277.49 123.838 277.213 123.174 277.21 122.479V122.479C277.213 121.785 277.49 121.121 277.98 120.63C278.471 120.139 279.136 119.862 279.83 119.859H372.89C373.584 119.862 374.249 120.139 374.74 120.63C375.231 121.121 375.507 121.785 375.51 122.479V122.479C375.507 123.174 375.231 123.838 374.74 124.329C374.249 124.82 373.584 125.097 372.89 125.099V125.099Z" fill="white"/>
<path opacity="0.6" d="M372.89 125.099H360.16C359.466 125.097 358.801 124.82 358.31 124.329C357.82 123.838 357.543 123.174 357.54 122.479V122.479C357.543 121.785 357.82 121.121 358.31 120.63C358.801 120.139 359.466 119.862 360.16 119.859H372.89C373.584 119.862 374.249 120.139 374.74 120.63C375.231 121.121 375.507 121.785 375.51 122.479V122.479C375.507 123.174 375.231 123.838 374.74 124.329C374.249 124.82 373.584 125.097 372.89 125.099V125.099Z" fill="#4B46EC"/>
<path d="M343.51 116.12H350.51C351.391 116.12 352.235 116.469 352.858 117.092C353.48 117.715 353.83 118.559 353.83 119.439V219.73H343.51V116.12Z" fill="#4B46EC"/>
<path d="M339.63 217.289H343.52V116.119H339.63V217.289Z" fill="#4B46EC"/>
<path opacity="0.2" d="M339.63 217.289H343.52V116.119H339.63V217.289Z" fill="black"/>
<path d="M339.63 116.12H329.35V219.73H339.63V116.12Z" fill="#4B46EC"/>
<path d="M325.46 217.289H329.35V116.119H325.46V217.289Z" fill="#4B46EC"/>
<path opacity="0.2" d="M325.46 217.289H329.35V116.119H325.46V217.289Z" fill="black"/>
<path d="M325.46 116.12H315.18V219.73H325.46V116.12Z" fill="#4B46EC"/>
<path d="M298.51 151.399H297.51V167.289H298.51V151.399Z" fill="#4B46EC"/>
<path d="M298.51 174.069H297.51V181.289H298.51V174.069Z" fill="#4B46EC"/>
<path d="M304.33 116.12H311.33V219.73H301.01V119.439C301.01 118.559 301.36 117.715 301.982 117.092C302.605 116.469 303.449 116.12 304.33 116.12V116.12Z" fill="#4B46EC"/>
<path d="M311.29 217.289H315.18V116.119H311.29V217.289Z" fill="#4B46EC"/>
<path opacity="0.2" d="M311.29 217.289H315.18V116.119H311.29V217.289Z" fill="black"/>
</svg>
